<?xml version="1.0" encoding="UTF-8"?><svg id="Calque_2" xmlns="http://www.w3.org/2000/svg" viewBox="0 0 131 152.38"><defs><style>.cls-1{fill:#b97813;}.cls-2{fill:#e1d9ba;}.cls-3{fill:#d0e4de;}.cls-4{fill:#d5e5e6;}.cls-5{fill:#92a5ac;}.cls-6{fill:#dddcc3;}.cls-7{fill:#e0b06a;}.cls-8{fill:#af741e;}.cls-9{fill:#c7af7d;}.cls-10{fill:#728896;}.cls-11{fill:#7e8e9b;}.cls-12{fill:#e2a949;}.cls-13{fill:#446f40;}.cls-14{fill:#9598b6;}.cls-15{fill:#7dafa1;}.cls-16{fill:#e7e5c1;}.cls-17{fill:#8c9aa7;}.cls-18{fill:#f6faf8;}.cls-19{fill:#768795;}.cls-20{fill:#6a7f45;}.cls-21{fill:#e5eaed;}.cls-22{fill:#b6bed2;}.cls-23{fill:#f9f7d7;}.cls-24{fill:#6ca076;}.cls-25{fill:#fefefe;}</style></defs><g id="Calque_1-2"><g><path class="cls-14" d="M15.27,61.75c1.01,.56,1.88,1.37,2.84,2.02,2.23,1.99,7.16,9.14,9.76,4.95,1.61-7.46-9.19-14.18-2.6-21.38,4.87-4.46,13.15,1.57,9.34,7.3-3.35,3.32-7.23-.07-6.05-4.19,5.29,6.63,7.13-4.63,.51-3.57-11.89,4.5,2.55,14.66,2.13,21.81-5.8,17.4-20.65-21.32-29.18-1.3-2,5.32,8.63,10.75,8.24,2.92-.22-2.78-2.83-1.79-4.82-2.36,1.87-1.29,4.49-2.94,6.53-.98,6.04,17.08-22.13,7.55-7.89-5.33,3.57-2.12,7.55-1.35,11.2,.11Z"/><path class="cls-4" d="M39.5,4.81C46.24,.02,57.96-1.35,66.09,1.41c-9.19-1.45-18.08-.35-26.59,3.4Z"/><path class="cls-21" d="M4.06,61.66c-1.23,1.62-2.45,3.24-3.68,4.87-.43-2.3,1.39-4.5,3.68-4.87Z"/><path class="cls-16" d="M41.69,34.36c2.73,4.27,4.17-1.63,6.43-3.89,5.52,9.09,7.33,1.42,14.61,4.01,6.82,4.46-7.65-1.62-9.77,3.35h0c-1.83,.22-2.51-1.96-3.72-3.08-3.28-1.22-4.16,5.4-6.73,2.78-.43-1.35-1.7-1.4-2.75-1.5-1.49-1.52-3.43,.05-5.15,.25h.01c-.4,.21-.81,.43-1.21,.65h.02c-.53,.28-1.02,.59-1.52,.93l.04-.02c-1.37,.43-.77,.76,.24,1.15h-.01c1.02,.1,2.03,.21,3.05,.32h0c.63,.28,1.27,.56,1.9,.84,.73,.89,1.66,1.86,2.45,2.78h0c.1,.2,.2,.41,.3,.62,1.02,8.26,1.3,17.41-.61,25.74-.53,.71-1.05,1.41-1.58,2.12h0c-1.04,1.76,4.17,4.41,3.28,8.36-.57,8.15,1.46,16.93-1.76,24.45-2.1,1.84-4.34,2.64-6.92,3.54,2.39,4.51,8.11,2,11.28-.44,3.19,5.18,5.12,4.63,8.37-.15,10.99,6.18,18.57,1.8,29.77,2.46,3.05,.66,.75,5.33,7.3,1.83,.18,2.19-2.93,3.43-4.58,4.23-3.55-1.19-.87-5.88-6.49-3.89-7.98-.4-16.37,1.25-24.07-1.29-2.18-.81-2.33-.85-3.85,.96-4.19,6.84-5.2-4.09-8.71-.88-3.84,4.94-16-3.03-10.14-5.3,10.67-.63,6.88-13.58,7.83-20.7,.43-4.37,.17-8.39-2.93-11.8-.51-.56-.69-.96-.06-1.65,4.06-4.68,5.7-27.88-1.6-29.78-2.71-1.21-7.18-1.04-3.78-4.81,0,0,0,0,0,0,2.17-3.53,6.84-3.09,11.07-2.21Z"/><path class="cls-14" d="M118.24,37.5c-.78,6.72,3.43,.76,7.66,1.63,4.25-.81,5.68,6.91,1.35,5.43,1.33-1.55,1.1-2.84-.61-3.37-9.35-1.25-15.85,13.63-26.22,4.37-7.53-6.93,.66-24.93-11.16-27.01-2.51,.65-1.29,4.06-.75,5.82,2.56,4.69,4.06,15.66-4.21,14.9-4.93-.62-4.1-8.59,1.3-6.9-1.23,1.22-2.65,2.95-.5,4,12.94,.74-8.18-21.78,5.72-21.13,12.67,6.54,.65,37.39,22,31.22,7.57-3.41,3.26-16.75-4.73-11.54-4.2,3.77,1.88,9.51,5.33,4.74,.24,1.24-.66,2.29-1.36,3.24-15.54,1.59-.66-21.61,6.18-5.4Z"/><path class="cls-5" d="M89.97,52.35c-1.31,11.49,8.31,10.25,2.98,11.41-5.27-3.92-7.64-.08-11.77,3.86-6.55,2.73-11.12,19.54-.09,15.46,1.61-2.01,.02-3.61-1.94-1.9,2.29-7.56,7.54,4.28-.23,4.28-10.45-.09-5.44-13.18-3.65-19.21,4,1.83,8.53-.67,9.07-5.1,12.91-9.89-4.47-21.43-14.09-13.9,6.04-7.07,17.86-4.01,19.71,5.11Z"/><path class="cls-13" d="M47.11,114.19c5.07-6.11,5.77-3.24,12.37-2.42,6.91-.1,14,.61,20.83-.34,2.13-.68,1.85,2.71,2.87,3.86,4.61,2.97,7.91-7.55,10.43-1.68-1.5,1.89-7.69,7.37-8.37,3.07-2.84,1.47-2.98-.55-3.7-2.19-5.62,.07-10.68-.07-16.17-.25-8.36,.86-10.12-4.67-14.57,2.39-.89,1.27-1.99-1.05-2.49-1.08-1.56,.87-3.21-1.44-1.19-1.35Z"/><path class="cls-13" d="M97.88,79.32c7.92,3.45-2.34,25.53,6.34,26.16,1.75,.22,1.17,2.85,3.14,2.24,3.83,9.8-17.68,8.7-7.05,4.97,9.13-7.31,.18-4.5-2.43-9.85,0-5.11-1.74-10.7-.4-15.59,1.71-.71-.04-5.91,.41-7.94Zm3.2,34.18c-.18-.13-.36-.09-.35,.14,.15,.17,.3,.08,.35-.14Z"/><path class="cls-20" d="M34.4,41.38c7.56,3.07,3.55,13.12,4.48,19.42,1.42,5.45-3.21,8.86-2.82,12.01,5.54,6.53,1.89,15.58,2.76,23.39,.31,5.45-3.77,9.9-9.4,9.12,.13,6.49,8.15,8.57,12.55,4.94-.35,1.31-3.36,2.88-5.06,2.7-5.09,.99-9.71-4.79-8.46-8.56,3.29,.41,8.4-1.38,8.81-4.85-.3-8.85,3.44-19.5-2.73-26.52-.74-.86-.76-1.28,.01-2.1,5.59-5.62,2.69-14.67,3.44-21.84,.72-3.43-2.66-5.13-3.59-7.7Z"/><path class="cls-4" d="M34.93,42.93c6.11,5.01,1.92,15,2.77,21.97-1.43,7.14-6.53,5.11-.05,12.53-1.49-1.04-3.12-1.94-3.91-3.66-1.24-2.61-3.95-1.63-2.55-5.08,.41-7.12-14.02-17.34-2.13-21.81,2.56-.57,4.98,1.91,4.34,4.44-2.02,4.55-5.92-4.72-4.82,2.41,5.97,8.11,10.76-7.29,1.63-7.97-1.92-.25-3.39,.76-4.95,1.58,.28-1.74,.98-1.98,3.57-2.24,5.81-1.07,10.24,7.12,5.92,10.65-6.61,2.95-7.8-1.78-6.74-7.19,1.07-.41,.97,.9,1.48,1.3,4.26,4.74,4.12-2.27,.15-2.46-9.3,2.53-.77,12.61,1.66,17.45,1.55,1.6-1.27,7.08,2.14,6.18,4.29-3.49,6.96-26.42-.08-27.43h0c-9.27-2.9-3.58-2.22,1.54-.67Z"/><path class="cls-11" d="M58.48,147.45c-23.81-8.15-5.16-37.33,5.09-24.95-16.69-6.82-20.86,19.28-5.47,23.27,9.24,1.89,11.12,4.47,.39,1.68Z"/><path class="cls-11" d="M85.94,118.44c2.18,17.85,3.65-3.37,14.44,1.85,4.62,1.94,2.11,10.22-2.55,9.47-2.99-.17-4.13-3.66-1.52-5.15,4.55-.3-4.32,1.16,.47,4.18,2.55,1.01,4.16,.03,1.94-1.63-.72-2.6,.17-1.83,1.01,.13,6.36-7.68-8.7-10.31-13.41,5.1,1.13-4.31,1.42-10.91-2.52-13-.05-.99,.53-1.97,1.51-2.08,.29,.33-.56,1.3,.63,1.13Z"/><path class="cls-21" d="M114.39,45.18c-19.82,10.38-13.58-18.48-20.64-27.72-2.2-3.37-7.53-3.27-7.8,1.46-.94,5.73,4.96,9.9,3.25,15.53-1.22,4.5-8.22,1.18-3.61-2.08,2.27,1.3-2.02,1.45-.48,3.42,.94-.92,2.27,.63,2.86-.76,2.22-4.06-.99-7.65-2.32-11.36-2.42-5.4,2.69-12.98,7.96-7.49,8.54,9.27,.1,36.53,20.79,29.01Z"/><path class="cls-11" d="M21.85,62.5c-4.82-9.93-6.91-22.23-2.9-32.75,.44,6.46-2.05,14.96,.82,23.71,.13,2.66,4.49,7.51,2.08,9.04Z"/><path class="cls-5" d="M67.92,58.28c-.9,11.2,1.85,24.18-1.19,34.52-.4-7.26-.39-50.46,1.19-34.52Z"/><path class="cls-5" d="M75.21,64.64c-.06,.02-.17,.02-.23,0-4.83-6.13-2.21-18.68,7.37-14.44,3.95,.59,.47,3.99-.77,.52-7.81-2.26-9.54,10.54-1.73,11.02,3.5,1.88-3.96,.55-4.64,2.9Z"/><path class="cls-19" d="M39.5,4.81c9.56-3.96,26.38-7.01,33.47-.06-8.2-3.09-17.37-4.11-25.79-1.39-4.82,.71-21.74,12.32-12.24,3.92,1.52-.82,3.04-1.65,4.56-2.47Z"/><path class="cls-21" d="M45.9,114.52c1.34,2.16,2.28,.16,3.83,2.39-2.04-.18-3.91-.71-5.24-2.51-2.39,.33-4.75,1.66-7.51,.69,5.68,3.55-.13,10.69,3.86,12.29-1.08,.47,.77,2.48-1.48,2.26,.79-4.8-3.83,2.91-6.04,.33,15.4-6.83-3.82-24.05-5.68-8.77-3.17-8.28,8.46-5.14,7.31-7.66,3.76,2.83,8.58-1.68,10.95,.98Z"/><path class="cls-17" d="M19.56,33.54c-3.44,2.11,3.2-15.4,.7-11.93-.37-3.03-2.86-8.77,1.22-4.6h0c1.12,6.29,4.78,1.81,9.59,3.65-8.24,.9-10.13,6.41-11.52,12.88Z"/><path class="cls-17" d="M32.18,87.86c1.11,.76,1.8,2.11,2.74,3.08-4.67,.08-9.22,6.26-13.01,3.19-3.45-.2-4.28-4.19-.09-1.68,4.93,1.23,6.32-4.48,10.36-4.59Z"/><path class="cls-17" d="M83.79,119.39c3.68,1.41,1.98,4.55,3.33,7.83,1.12,2.9-3.42,10.73-1.82,3.94-.27,.21-.41,.33-.56,.44,.39-2.47,.86-5.09-.62-7.35h0c-.22-3.94-5.93-2.5-6.54-4.96,.12-.02,.23-.2,.36-.28l-.03,.02c.96-1.37,2.99-1.27,4.37-.55-.32,1.76,.86,.31,1.24,.58l-.02-.02c.1,.12,.19,.24,.29,.35Z"/><path class="cls-21" d="M37.4,139.52c-1.41,13.36-17.13,.84-7.07-1.77,1.74,.81,.19,2.8,1.02,4.28,3.22,.01,1.54-3.18,1.96-4.86,2.12,2.76,1.15,6.27-2.36,5.75-2.66-.83,.78-6.62-2.47-3.41-2.3,4.72,5.27,7.27,7.27,3.05,1.85-3.97-3.02-6.46-3.23-9.22,2.36,.84,4.4,3.32,4.88,6.18Z"/><path class="cls-20" d="M62.73,34.49c-7.28-2.59-9.1,5.07-14.61-4.02-2,1.87-3.91,8.36-6.15,3.98,3.77,1.55,4.21-8.43,8.1-3.61,3.75,6.01,12.56-1.78,16.31,5.13-.91,1.93-2.31-1.18-3.66-1.48Z"/><path class="cls-11" d="M84.74,131.6c.15-.12,.3-.23,.56-.44-.08,1.39-1.41,4.21,.67,2.29-.76,7.09-15.44,18-17.75,13.67,8.06-1.34,14.28-7.9,16.52-15.52Z"/><path class="cls-11" d="M18.13,128.03c-7.14-3.8-6.78-17.24-2.83-23.73-1.08,7.55-3.25,14.33,2.88,20.51-5.32-5.03-3.13,1.18-.05,3.22Zm-3.27-6.22c.08,.23,.17,.24,.36,.12-.12-.2-.17-.36-.36-.12Z"/><path class="cls-5" d="M63.56,122.5c-2.07-6.14,4.44,6.22,3.02-7.11,.04-.96-.56-1.05-1.22-1.16,5.1-.54,1.6,8.16,2.58,11.58,2.15,2.55-.56,9.39-1.9,4.56,.02-3.12,.99-6.65-2.47-7.87Z"/><path class="cls-21" d="M83.25,80.88c-.2-3.75-5.97-1.24-3.59,.09,1.78-1.87,2.82,.79,1.43,2.1-11.03,4.07-6.46-12.72,.09-15.46-2.73,4.84-10.39,11.66-3.4,15.38,.57-.58,.7-1.43,.44-2.15-1.3-4.5,7.66-2.13,5.02,.04Z"/><path class="cls-11" d="M43.46,27.05c-4.82-.72-4.08-8.22-.28-9.96,4.92-2.68,11.35,2.24,10.08,6.95-6.35-15.09-16.24,1.32-10.06,.61,.24,.49-.48,1.68,.26,2.4Z"/><path class="cls-21" d="M85.57,32.36c-5.39-1.64-6.2,6.29-1.28,6.91,8.26,.75,6.78-10.2,4.21-14.9,1.78-.95,4.22,8.13,3.04,9.29,.19,11.2-18.28,5.08-8.34-1.97,1.21-.63,2.26-1.16,2.37,.67Z"/><path class="cls-17" d="M74.89,27.05c-1.93-3.16-6.86-4.48-.47-5.63-2,0-3.94,0-5.88,0,8.26-2.3,9.15,2.61,8.81,9.79-.74-2.06-1.27-2.74-2.46-4.16Z"/><path class="cls-4" d="M67.59,52.15c-7.52,9.1-12.32-11.8,2.75-8.96,.3-2.47-1.31-4.55-2.38-6.35,2.32,.17,2.29,3.29,3.22,4.97,.4,3.15-3.2,1.94-4.95,2.1-5.87,.69-7.59,10.81-.26,9.84,1.46-3.92,4.61-8.86,1.62-1.59Z"/><path class="cls-20" d="M74.62,100.84c4.28-.25,6.67-3.72,9.52-5.89-2.13,8.38-20.08,9.75-25.46,5.88,5.17,.48,10.67,1.06,15.94,.02Z"/><path class="cls-20" d="M97.88,79.32c-.45,2.01,1.3,7.27-.4,7.94,.9-15.81-11.18-10.82-11.21,2.23-1.13-7.67,3.72-18.91,11.62-10.17Z"/><path class="cls-4" d="M20.23,15.79c2.71-1.67,2.71,7.16,4.29-.01,.29-.81-.08-2.08,.53-2.72,3.92-.9,6.08-4.97,9.89-5.78-3.03,3.54-9.68,4.43-9.85,9.43l.02-.02c-2.22,4.68,1.68,.42,4.06,.02-.02,1.36-.97,1.13-2.28,1.9,1.26,.35,3.02-.46,3.11,.91-1.68,.11-3.47-.43-4.97,.82-3.17,1.91-2.03-1.47-3.55-3.33-.5-.35-.83-.79-1.25-1.22Z"/><path class="cls-14" d="M37.4,139.52c-3.63-10.31-11.21-4.1,2.1-11.85,.05,1.31-.21,2.44-1.38,3.22-6.73,1.7,2.84,5.53-.72,8.63Z"/><path class="cls-20" d="M30.07,37.2c-2.39,3.74,2.09,2.78,4.33,4.18-2.95,.15-7.14,.37-5.61-3.9,1.78-5.68,10.24-7.16,12.9-3.11-3.78-.55-8.85-1.89-11.07,2.21-.17,.2-.37,.42-.55,.63Z"/><path class="cls-11" d="M92.02,32.61c1.28-12.64,2.46,7.54-2.99,13.81-3.78,2.33,4.75-9.93,2.99-13.81Z"/><path class="cls-2" d="M125.45,31.92c.14,2.84-5.53,10.56-5.82,4.34,.35-1.88,4.3-4.39,5.82-4.34Z"/><path class="cls-17" d="M29.17,16.71c-3.17,1.9-4.33,.79-3.9-2.6,1.69-.78,6.91-5.65,6.1-2.46-1.78,.47-1.24,3.54-2.2,5.06Z"/><path class="cls-19" d="M53.96,34.1c-1.94-2.41-1.25-8.9,.33-11.83,.16,2.58,.48,5.11-.59,7.54,.64-.7,2.42-2.18,1.07-2.73,.33-.31,.77-.57,.97-.95,.76-1.51,3.1-2.18,2.36-4.47,.26-1.13,.88-3.11-.87-3.4,1.6-3,4.05,6.93,0,7.94,0,0,0,0,0,0-2.22,2.17-2.91,4.97-3.26,7.91Z"/><path class="cls-21" d="M118.24,37.5c-4.59-13.56-20.98,1.31-8.45,5.88-8.73,1.45-6.1-14.57,3.65-12,2.29,.72,5.83,3.12,4.8,6.12Z"/><path class="cls-11" d="M75.7,28.33c1.12-.28,.83,2.03,1.65,2.88-.08-1.68-.29-3.35,.01-5.02,3.46,10.09-10.58,12.32-8.18,4.26-.08,6.01,9.38,3.93,6.52-2.12Z"/><path class="cls-4" d="M53.12,24.13c-.64,3.72,1.79,12.75-3.06,6.71,6.53,.74,1.21-16.6-6.96-11.71,3.53-3.73,9.4,.68,10.01,5Z"/><path class="cls-17" d="M82.89,8.46c1.49,4.97-8.92,0-5.55-2.91,2.48,.72,4.36,1.35,5.55,2.91Z"/><path class="cls-10" d="M15.38,106.56c-1.84-5.36,8.25-9.61,6.51-12.41,4.97,2.31-6.15,7.52-6.51,12.41Z"/><path class="cls-17" d="M30.68,71.66c2.38-.2,4.52,3.24,3.94,5.22-.86-.36-1.72-1-2.59-1.02-2.43,.45-4.7-5.13-1.35-4.2Z"/><path class="cls-21" d="M94.25,21.57c3.89,7.43,.28,17.23,6.16,23.99-7.03-4.92-3.5-16.54-6.16-23.99Z"/><path class="cls-4" d="M23.41,50.31c-.85,4.22,.97,7.73,2.96,11.21,2.88,3.49,1.78,10.43-.92,3.53,6.18,6.48-6.89-15.04-2.03-14.74Z"/><path class="cls-4" d="M48.95,2.93c7.23-1.82,18.61-1.83,23.9,2.57-7.63-3.51-15.83-2.93-23.9-2.57Z"/><path class="cls-12" d="M25.44,65.05c-1.27,4.52-6.85-1.04-2.69-2.81,2.22,.13,2.54,.47,2.69,2.81Z"/><path class="cls-12" d="M84.44,10.92c2.5-.55,3.97,.66,3.34,2.75-1.45,3.91-5.89-.22-3.34-2.75Z"/><path class="cls-4" d="M53.96,34.1c.35-2.94,1.04-5.74,3.26-7.91-6.44,13.06,4.13-.4,10.74,10.65-3.48-2.93-8.72-6.4-14-2.74Z"/><path class="cls-2" d="M60.09,12.19c-.94-2.24-1.06-8.29,2.36-6.67,.69,2.75-.99,4.27-2.36,6.67Z"/><path class="cls-11" d="M21.81,92.46c-5.78-.19-4.35-7.46,1.62-6.8-3.19,1.72-5.29,4.37-1.62,6.8Z"/><path class="cls-17" d="M43.46,27.05c-1.15-1.93,.7-4.91,3.1-4.23,2.27,1.98-.43,5.64-3.1,4.23Z"/><path class="cls-12" d="M72.85,5.5c.05-3.36,4.03-4.26,4.49,.05-.97,2.08-3.53,2.08-4.49-.05Z"/><path class="cls-12" d="M24.19,131.82c-2.92,1.17-4.2-1.31-2.78-3.5,2.34-2.36,4.8,1.81,2.78,3.5Z"/><path class="cls-21" d="M117.93,44.09c1.83-2.35,5.97-3.74,8.71-2.9,3.09,.31-.93,6.47,3.27,2.41,1.28,1.48-1.61,2.08-2.57,2.43-2.39-1.06-2.56-1.96,.48-2.82-2.19-2.7-5.25-1.64-7.66,.09h0c-.74,.26-1.49,.52-2.23,.79Z"/><path class="cls-4" d="M91.96,28.3c-.44,6.22-1.1-5.13-3.46-3.93-.07-.19-.13-.38-.19-.57,1.65-.54,.33-1.84,.69-2.7,4.08-2.05,5.12,2.83,4.34,6.03-1.64-9.6-5.49-6.44-1.38,1.17Z"/><path class="cls-4" d="M75.7,28.33c2.86,6.06-6.6,8.13-6.52,2.12-.07,1.98-1.97,3.51-1.22,.67,.25-1.33,1.83-3.24,2.34-1.05-.5,5.04,6.82,4.89,4.58-3.02,.27,.43,.54,.86,.82,1.28Z"/><path class="cls-11" d="M25.03,20.34c1.98-1.59,6.97-1.06,7.15,1.39-4.61-.23-8.51,.79-10.38,5.38-.19-4.82,5.58-5.05,9.28-6.45-2.12-.77-3.92-.52-6.05-.32Z"/><path class="cls-2" d="M41.9,132.26c3.3,2.97,.77,4.88-2.73,2.65-2.63-2.31,.8-2.45,2.73-2.65Z"/><path class="cls-2" d="M56.95,15.06c-.04-2.55-2.23-4.62-.77-7.09,2.51,.75,2.87,3.61,.77,7.09Z"/><path class="cls-5" d="M67.87,101.26c-3.01,.2,.43-5.27-2.85-6.91,1.38-1.95,4.26,.24,4.1,2.12-1.93,1.04-1.05,3.27-1.25,4.79Z"/><path class="cls-21" d="M129.98,42.39c-1.34-7.96-12.56,1.54-11.61-3.07,1.9,1.65,3.9-1.01,6.33-1.41,1.37,.35,9.03,2.52,5.28,4.48Z"/><path class="cls-4" d="M75.21,64.64c1.39-1.99,3.48-1.42,5.58-1.87,7.49-2.05-1.28,6.69-5.24,3.52,2.55-.05,4.93,.38,6.87-2.17,1.94-1.91-5.62-.2-7.21,.53Z"/><path class="cls-4" d="M92.02,32.61c-.04,3.71-1.98,14.51-5.77,13.14,4.08-2.75,4-8.95,5.77-13.14Z"/><path class="cls-21" d="M101.01,46.26c4.42,2.7,10.29,2.93,14.52-.27-2.21,4.11-11.91,3.96-14.52,.27Z"/><path class="cls-21" d="M38.66,132.69c-1.47,1.14,1.38,2.1,.12,3.75-1.06,1.53-2.48-2.87-3.67-3.91,1.18-.36,3.24-2.77,3.46-.31,0,0,0,0,0,0-.01,.17,0,.33,.08,.48Zm-1.72-.35c.78,.21,.61,.23,.87-.23-.17,.04-.34,.09-.87,.23Z"/><path class="cls-10" d="M68.54,21.42h5.88c-.94,1.1-3-.35-3.46,1.62-.88-.21-1.76-.41-2.58-.77-8.61,.62-7.87-.95,.17-.84Z"/><path class="cls-2" d="M55.34,16.34c-1.97-1.44-3.35-2.86-1.9-5.33,2.14,1.27,2.14,3.11,1.9,5.33Z"/><path class="cls-4" d="M72.43,56.24c.04,3.05,1.13,5.77,2.55,8.4-3.3-1.08-2.39-12-7.06-6.36-.69-3.14,2.42-1.78,4.51-2.04Z"/><path class="cls-2" d="M65.95,14.47c-.13,3.3-3.33,2.01-4.87,3.5,.36-2.57,2.55-4.06,4.87-3.5Z"/><path class="cls-13" d="M86.59,83.13c-.19,3.98-.1,11.2-4.18,12.76,2.63-3.87,3.24-8.34,4.18-12.76Z"/><path class="cls-21" d="M89,21.1c.47,7.05-3.24-2.21,.25-2.55,2.17-.25,4.11,.93,4.99,3-.78-.29-1.69-.32-2.2-1.05-.17-2.55-4.34-1.74-3.04,.6Z"/><path class="cls-17" d="M92.64,24.04c.41,1.72,.88,3.41,.69,5.2-2.85-1.28-4.35-11.04-.69-5.2Z"/><path class="cls-19" d="M69.14,96.46c.58-1.41,4.08,3.4,5.48,4.38-2.45,1.21-6.75-3.98-5.48-4.38Z"/><path class="cls-20" d="M100,113.15c-6.13,3.1-5.8-2.32-10.19-.89,1.41-3.28,7.09,1.22,10.19,.89Z"/><path class="cls-21" d="M83.64,65.36c3.11-3.85,5.11-4.38,9.02-1.57-1.53,1.15-3.35-.56-4.31-1.51-1.93,.62-2.57,4.16-4.71,3.08Z"/><path class="cls-4" d="M94.97,63.22c-4.68-1.7-4.98-6-4.95-10.45,2.06,2.83-.38,8.42,4.61,9.23,.66,.32,1.49,.92,.35,1.22Z"/><path class="cls-21" d="M107.03,39.33c-2.15-4.86,5.94-7.74,8.34-3.48-3.86-2.22-8.06-1.61-8.34,3.48Z"/><path class="cls-4" d="M83.25,80.88c2.53,4.69-7.7,8.07-9.57,2.54,2.89,3.21,9.5,2.95,9.57-2.54Z"/><path class="cls-2" d="M60.49,15.13c1.03-3.32,2.49-4.48,4.78-4.04-.72,2.29-3,2.57-4.78,4.04Z"/><path class="cls-4" d="M61.79,22.77c2.38-.44,4.99-1.31,7.34-.19-4.33,.13-8.46,.62-11.91,3.61,1.41-1.33,2.63-2.92,4.58-3.42Z"/><path class="cls-22" d="M67.21,148.17c.73,.18,3.39-.5,2.98,.34-2.12,.09-2.13,1.56-2.12,3.12-.86,2.89-3.26-3.54-.86-3.46Z"/><path class="cls-13" d="M28.79,37.48c-.06,1.08-.67,2.91,.38,3.6,13.68,1.31-4.12,3.74-.38-3.6Z"/><path class="cls-10" d="M34.91,90.95c-.81-.98-1.62-1.96-2.43-2.94,1.51,1.64,3.32,1.69,5.27,.97,.36,2.86-.68,1.37-2.84,1.97Z"/><path class="cls-21" d="M33.07,137.42c-2.04-.24-3.14-3.4-5.04-2.64-.19-.48-.25-.94-.51-1.19-4.73-3.62,5.78,1.77,5.54,3.84Z"/><path class="cls-4" d="M31.77,11.37c2.3-1.52,4.59-3.05,6.89-4.57-.85,1.78-9.98,8.43-6.89,4.57Z"/><path class="cls-4" d="M89.43,45.79c1.28-3.28,2.56-6.55,3.84-9.83-.27,3.52-.76,7.62-3.84,9.83Z"/><path class="cls-21" d="M115.39,35.88c2.9,2.23,1.44,7.17-.99,9.29,1.18-3.29,2.62-5.92,.99-9.29Z"/><path class="cls-21" d="M113.41,39.66c-1.42,3.03-7.6,1.24-5.2,.33,2.31,2.24,3.77-2.12,5.2-.33Z"/><path class="cls-4" d="M68.55,33.18c1.27,2.33,4.9,2.32,7.03,1.34-.3,2.57-7.84,1.24-7.03-1.34Z"/><path class="cls-4" d="M67.92,68.67c0-3.26-.01-6.52-.02-9.78,.87,2.69,.83,7.05,.02,9.78Z"/><path class="cls-4" d="M67.94,86.09c0-2.96-.01-5.92-.02-8.88,1.05,2.45,.8,6.35,.02,8.88Z"/><path class="cls-11" d="M29.37,73.4c.17,2.91,3.32,2.13,5.24,3.47-1.34,.53-6.42-.6-5.24-3.47Z"/><path class="cls-10" d="M84.44,10.92c-.88,1.55-3.15-.24-4.62-.28,2.39,.43,3.56-2.21,4.62,.28Z"/><path class="cls-4" d="M73.42,3.39c-1.79,.38-4.63-1.5-6.75-1.9,2.47-.12,4.59,.85,6.75,1.9Z"/><path class="cls-4" d="M69.79,22.75c2.01,.33,3.14,2.38,4.71,3.55-1.82-.6-3.16-2.14-4.76-3.17,.04-.11,.03-.24,.05-.38Z"/><path class="cls-19" d="M54.13,20.6c1.01-.66,2.12-2.07,3.1-2.34-.08,1.4-2.38,4.68-3.1,2.34Z"/><path class="cls-10" d="M21.41,128.32c-.24,2.03-2.8,.32-3.3-.68,1.45,.99,1.6-1.17,3.3,.68Z"/><path class="cls-4" d="M87.81,47.67c.4-.42,.81-.84,1.21-1.26-.54,2.12,1.12,3.77,.94,5.94-.72-1.56-1.44-3.12-2.15-4.68Z"/><path class="cls-19" d="M34.6,77.23c-.46-3.84,4.64,1.37,2.33,1.31-.3-.19-.72-.5-.94-.62-.46-.23-.93-.46-1.39-.69Z"/><path class="cls-4" d="M93.33,29.23c0-.51,.02-1.03,.03-1.54,1.17,1.53,1.17,5.05,0,6.47,0-1.64-.02-3.29-.02-4.93Z"/><path class="cls-4" d="M73.72,71.11c-.43,1.93-.86,3.86-1.29,5.79-.12-2.05-.47-4.16,1.29-5.79Z"/><path class="cls-4" d="M67.91,75.69c.01-2.04,.02-4.08,.03-6.12,.86,1.55,.81,4.74-.03,6.12Z"/><path class="cls-4" d="M72.9,44.71c-1.23,.82-2.55,3.18-3.83,3.12,.78-1.89,2.48-3.28,3.83-3.12Z"/><path class="cls-4" d="M38.78,6.74c1.45-.66,2.91-1.31,4.36-1.97-1.1,1.45-2.54,2.13-4.36,1.97Z"/><path class="cls-4" d="M77.99,43.29c-1.66,.46-3.32,.92-4.98,1.39,.84-1.49,3.41-2.27,4.98-1.39Z"/><path class="cls-4" d="M84.99,44.88c-1.42-.51-2.84-1.02-4.25-1.53,1.24-.71,3.62,.15,4.25,1.53Z"/><path class="cls-19" d="M46.56,22.82c-1.45-.08-2.8,0-3.12,1.83-1.57-1.34,2.1-4.04,3.12-1.83Z"/><path class="cls-10" d="M61.51,22.88c-2.09,1.47-1.84-.93-2.46-2.46,.27,1.42,1.16,1.78,2.46,2.46Z"/><path class="cls-17" d="M54.13,20.6c1.27,1.24-.35,2.14-.86,3.44,.08-1.15-.65-2.65,.86-3.44Z"/><path class="cls-4" d="M25.21,47.41c-.56,.89-1.12,1.79-1.68,2.68-.63-1.81-.11-2.64,1.68-2.68Z"/><path class="cls-4" d="M29.43,15.8c.46-.68,.55-3.27,1.51-2.75,.29,1.35-.75,1.97-1.51,2.75Z"/><path class="cls-4" d="M75.27,66.24c-.34,1.28-.68,2.55-1.02,3.83,.09-1.34-.11-2.76,1.02-3.83Z"/><path class="cls-4" d="M72.43,79.67c.37,1.18,.75,2.37,1.12,3.55-1.29-.64-1.64-1.73-1.12-3.55Z"/><path class="cls-4" d="M43.77,4.54c1.13-.39,2.27-.78,3.4-1.17-.82,1.29-2.11,1.24-3.4,1.17Z"/><path class="cls-21" d="M115.82,45.84c.69-.57,1.38-1.14,2.07-1.71-.3,1.39-1.23,2.16-2.07,1.71Z"/><path class="cls-11" d="M20.69,30.19c-.93-.24,.84-1.99,1.01-2.76-.34,.92-.67,1.84-1.01,2.76Z"/><path class="cls-21" d="M81.21,67.57c.78-.71,1.56-1.42,2.35-2.13-.29,1.25-1.04,2-2.35,2.13Z"/><path class="cls-21" d="M112.13,42.86c.53-.57,1.23-2.82,1.67-1.34-.43,.59-.48,1.7-1.67,1.34Z"/><path class="cls-21" d="M41.9,132.26c-.92-.13-3.18,1.02-3.32-.05,1.09,.02,2.22,.03,3.32,.05Z"/><path class="cls-11" d="M19.6,33.46c.26-.88,.53-1.75,.79-2.63-.26,.88-.53,1.75-.79,2.63Z"/><path class="cls-21" d="M37.65,139.58c.21-.52,.41-1.03,.62-1.55,1.31,.51-.02,2.05-.62,1.55Z"/><path class="cls-21" d="M110.68,43.34c1.27-.53,1.52-.47,1.26,.94-.63,.51-.85-.56-1.26-.94Z"/><path class="cls-21" d="M38.17,130.85c.63-.49,1.13-1.69,1.64-.53-.55,.18-1.09,.35-1.64,.53Z"/><path class="cls-14" d="M67.54,93.72c-1.42,.17-.92-1.1,.02-1.53,0,.51-.01,1.02-.02,1.53Z"/><path class="cls-21" d="M24.19,131.82c.53-.82,1.1-.15,1.77,.17-.39,.49-1.21-.15-1.77-.17Z"/><path class="cls-4" d="M76.64,33.67c.33-.48,.65-.95,.98-1.43,.29,.9,.03,1.42-.98,1.43Z"/><path class="cls-10" d="M32.18,87.86c-.52,0-1.05,0-1.57,.01,.52,0,1.05,0,1.57-.01Z"/><path class="cls-4" d="M80.14,43.28c-.52,0-1.03,0-1.55-.01,.52-.86,1.04-.88,1.55,.01Z"/><path class="cls-10" d="M82.89,8.46c-.99,0-.73-.64-.59-1.2,.2,.4,.39,.8,.59,1.2Z"/><path class="cls-4" d="M67.8,88.45c.04-.38,.08-.77,.11-1.15,.49,.55,.66,.82-.11,1.15Z"/><path class="cls-22" d="M61.14,148.22c.54,.11,1.08,.21,1.61,.32-.54-.11-1.08-.21-1.61-.32Z"/><path class="cls-4" d="M86.24,45.74c-.36-.25-.72-.5-1.09-.76,.36,.25,.72,.5,1.09,.76Z"/><path class="cls-21" d="M93.9,63.61c.33-.12,.65-.23,.98-.35,.29,1.01-1.01,.99-.98,.35Z"/><path class="cls-10" d="M20.01,93.71c.35,.12,.69,.24,1.04,.37-.35-.12-.69-.24-1.04-.37Z"/><path class="cls-19" d="M61.51,22.88c-.31-.21-.63-.43-.94-.64,.3-.11,1.61,.6,.94,.64Z"/><path class="cls-4" d="M75.82,34.42c.26-.23,.53-.47,.79-.7-.26,.23-.53,.47-.79,.7Z"/><path class="cls-22" d="M63.24,148.57c.23,.04,.47,.08,.7,.13-.23-.04-.47-.08-.7-.13Z"/><path class="cls-21" d="M100.48,45.63c.18,.2,.35,.4,.53,.6-.18-.2-.35-.4-.53-.6Z"/><path class="cls-5" d="M71.4,97.64c-.24-.18-.48-.35-.72-.53,.24,.18,.48,.35,.72,.53Z"/><path class="cls-17" d="M66.3,21.21c-.25,0-.49,0-.74,0,.25,0,.49,0,.74,0Z"/><path class="cls-4" d="M93.9,63.61c.04,.48-.64,.11-.95,.15,.32-.05,.63-.1,.95-.15Z"/><path class="cls-21" d="M113.45,39.94c-.21-.41,.16-.23,.54-.18-.29,.09-.42,.14-.54,.18Z"/><path class="cls-4" d="M93.33,35.07c-.07-.4,.05-.35,.35-.18-.12,.06-.23,.12-.35,.18Z"/><path class="cls-4" d="M47.71,3.26c.22-.08,.44-.16,.66-.24-.22,.08-.44,.16-.66,.24Z"/><path class="cls-21" d="M49.87,117.12s0,0,0,0c-.03,.14-.06,.27,0-.02-.13,.27-.07,.15-.01,.02Z"/><path class="cls-5" d="M70.02,96.48c-.09-.09-.19-.19-.28-.28,.09,.09,.19,.19,.28,.28Z"/><path class="cls-5" d="M70.32,96.77c-.09-.09-.19-.19-.28-.28,.09,.09,.19,.19,.28,.28Z"/><path class="cls-4" d="M47.23,3.33c.06-.01,.12-.02,.18-.03-.05,.05-.12,.06-.18,.03Z"/><path class="cls-4" d="M69.74,23.13s-.04,.07-.06,.1c.02-.03,.07-.07,.06-.1Z"/><path class="cls-21" d="M113.44,31.39l.06-.12s-.06,.08-.06,.12Z"/><path class="cls-21" d="M120.15,43.3s.08,.04,.12,.07c-.04-.02-.08-.07-.12-.07Z"/><path class="cls-4" d="M33.38,43.6s-.04,.07-.05,.1c.01-.03,.06-.07,.05-.1Z"/><path class="cls-20" d="M36.93,78.54s-.03-.03-.03-.03c0,0,.03,.03,.03,.03Z"/><path class="cls-20" d="M35.99,77.92s-.02-.02-.02-.02,.02,.02,.02,.02Z"/><path class="cls-10" d="M82.99,9.01c-.2-.03-.24-.1-.07-.23,.06,.06,.09,.14,.07,.23Z"/><path class="cls-22" d="M58.48,147.45c.1,.03,.2,.07,.29,.1-.1-.03-.2-.07-.29-.1Z"/><path class="cls-22" d="M59.93,147.88c.13,.06,.25,.12,.38,.19-.13-.06-.25-.12-.38-.19Z"/><path class="cls-11" d="M98.26,124.78c.11,.16,.43,.29,.18,.43-.12-.15-.42-.27-.18-.43Z"/><path class="cls-21" d="M21.21,65.07c1.44,2.49,4.06,1.27,4.95,4.78-3.65,.02-5.54-3.96-8.06-6.07,1.02,.48,2,1.05,3.1,1.29Z"/><path class="cls-21" d="M15.27,61.75c-3.65-1.45-7.62-2.22-11.2-.11,1.77-2.88,9.41-2.98,11.2,.11Z"/><path class="cls-11" d="M19.86,15.53c-1.89-.15-.51,1.26-.27,2.43-2.05-1.96-3.81-4.3,.27-2.43Z"/><path class="cls-11" d="M20.26,24.02c-1.2,6.67-1.42,4.57-.04-.64,.01,.21,.03,.42,.04,.64Z"/><path class="cls-4" d="M39.5,4.81c-1.52,.82-3.04,1.65-4.56,2.47,.4-1.78,3.21-1.42,4.56-2.47Z"/><path class="cls-21" d="M18.1,63.77c-.78-.48-3.77-2.76-1.54-1.76,.32,.78,2.32,.07,1.54,1.76Z"/><path class="cls-19" d="M20.26,24.02c.04-1-.37-3.38,.78-3.53-.26,1.18-.52,2.36-.78,3.53Z"/><path class="cls-11" d="M26.16,69.84c-.51-1.44-3.15-3.4-.71-3.95,1.04,1.05,4.12,4.41,.71,3.95Z"/><path class="cls-23" d="M40.77,47.84c-.22-1.21-.44-2.42-.69-3.62-.14-.45-.3-.86-.52-1.28-.36-1.24-1.19-2.27-2.47-2.77-.54-.26-1.27-.57-1.88-.84h0c-1.02-.11-2.03-.22-3.05-.33-.49-1.19,.21-1.53,1.26-2.07,.32-.16,.81-.44,1.19-.65,4.27-2.59,8.04,3.19,10.11,1.31,5.12-7.72,5.87,2.25,8.23,.23,.16-.1,.39-.22,.59-.34,3.2-2.71,9.75-2.88,11.34,1.53-4.3,1.07-10.08,1.62-10.14,7.24-.71,9.23,.35,19.27,2.43,26.75-3.29,4.75-5.91,33.69,4.24,31.4,11.81,1.48,24.53-1.22,26.91-14.72,1.7-3.08-.47-9.96,4.64-9.73,6.74,3.61-2.13,21.36,5.18,26.77,8.09,2.34-1.6,6.52-5.15,2.16-.51-.4-.87-.86-1.67-.3-10.29,9.02-4.85-2.69-12.15,1.25-5.82,.06-11.81-.12-17.61,.4-5.47,.8-9.25-6.41-13.98,1.9-3.95-8.56-8.17,.81-14.39-2.94-2.85-2.28,4.76-2.72,6.02-4.96-.42,.77-.83,1.53-1.25,2.3h0c-6.02,1.64-1.25,4.44,2.3,1.57,1.37-1.1,2.63-3.25,4.28-1.43,3.71,6.36,4.15,.28,8.36-1.02,7.96,5.54,22.01,4.28,30.63,.57,1.71,11.56,5.25-1.69,10.04,1.5,10.27,5.71,1.86-.87,.87-4.99-1.43-6.87,1.52-15.28-1.15-21.55-4.71,.46-2.82,8.18-4.15,11.74-5.11,13.29-18.17,13.89-30.61,12.37-8.88-5.6-3.58-18.75-4.93-27.74,1.88-5.52,3.39-5.63-.02-11.35,1.02-10.24-4.44-26.06,8.82-28.54-6.73-2.89-9.71,5.56-13.09-.54-1.41-3.71-3.45,2.19-4.96,3.4-2.81-1.15-6.01-5.44-8.95-2.34,10.36,2.43,7.17,24.97,4.71,32.73,1.41,8.77,2.52,20.3,1.54,30.45-.33,1.38-1.3,2.17-2.46,2.89,.85-2.75,2.21-5.2,1.79-8.28-.43-8.42,1.65-17.57-3.29-24.54,.5-.65,1.05-1.42,1.57-2.11,3.47-6.21,1.25-14.5,1.52-21.47Z"/><path class="cls-6" d="M85.03,112.69c10.38-7.98,5.47-1.37,14.15-2.05,7.41-3.64-6.66-.92-3.85-16.28,1.38,1.7,.13,4.41,.74,6.46-.03,5.43,6.05,8.09,1.82,2.02,.56,3.94,7.02,2.4,6.17,5.28-.39-1.3-1.4-1.3-2.64-1.19,4.29,3.67-4.6,3.8-1.4,6.21-3.07,.34-8.91-4.24-10.18-.84-2.06-.77-1.55-.05-4.8,.38Z"/><path class="cls-6" d="M58.04,40.76c3.51-.92,10.2-1.57,3.75-4.76,.99-.2,2.75,1.38,2.82-.06,1.28,.58,3.85,5.26,1.09,4.89-2.16-.38-4.08,.45-6.02,1.28,1.23-2.16-.34-1.07-1.63-1.35Z"/><path class="cls-6" d="M40.77,47.84c-.29,6.98,1.99,15.19-1.53,21.48,2.6-7.05,.12-14.43,1.53-21.48Z"/><path class="cls-6" d="M79.17,109.84c3.47-2.03,4.33-.95,5.25,2.79-2.37-2.93-.99-3.44-5.25-2.79Z"/><path class="cls-20" d="M88.99,112.65c3.33-.91-2.57,3.5-4.01,2.99,1.13-.8,2.25-1.63,3.39-2.42,.21-.19,.41-.39,.61-.58Z"/><path class="cls-1" d="M37.95,106.54c.4-.76,.87-1.57,1.24-2.3,1.16-.72,2.12-1.5,2.45-2.89-.11,2.5-1.75,4.81-3.69,5.18Z"/><path class="cls-2" d="M62.14,110.13c2.31-.08,4.62-.16,6.94-.24-2.28,1-4.6,.82-6.94,.24Z"/><path class="cls-20" d="M45.9,114.52c-.84-.9-1.51-1.87-1.83-3.07,.74,.33,4.35,3.11,1.83,3.07Z"/><path class="cls-20" d="M41.9,110.18c.36-.87,.91-.65,1.39-.17,1.84,2.1-.13,1.05-1.39,.17Z"/><path class="cls-6" d="M73.1,109.87c2.03-.01,4.05-.03,6.08-.04-2.03,.01-4.05,.03-6.08,.04Z"/><path class="cls-6" d="M37.1,40.17c1.29,.51,2.07,1.48,2.47,2.78-.82-.93-1.65-1.85-2.47-2.78Z"/><path class="cls-6" d="M42.51,37.54c-.92-.5-1.84-1.01-2.76-1.51,1.11,.15,2.31,.14,2.76,1.51Z"/><path class="cls-6" d="M40.09,44.24c.19,1.01,.38,2.02,.58,3.03-.19-1.01-.38-2.02-.58-3.03Z"/><path class="cls-6" d="M55.5,36.31c-.65,.39-1.3,.78-1.95,1.18,.05-1.39,1.05-1.19,1.95-1.18Z"/><path class="cls-6" d="M39.25,69.31c-.53,.71-1.05,1.41-1.58,2.12,.53-.71,1.05-1.41,1.58-2.12Z"/><path class="cls-6" d="M32.17,39c1.02,.11,2.03,.22,3.05,.33-1.02-.11-2.03-.22-3.05-.33Z"/><path class="cls-6" d="M39.76,36.04c-.91-.12-1.82-.23-2.73-.35,.98-.47,1.91-.51,2.73,.35Z"/><path class="cls-6" d="M35.22,39.33c.63,.28,1.27,.56,1.9,.85-.63-.28-1.27-.56-1.9-.85Z"/><path class="cls-6" d="M50.79,36.61c-.52-.62-1.03-1.24-1.55-1.86,.52,.62,1.03,1.24,1.55,1.86Z"/><path class="cls-6" d="M52.97,37.83c-.44,.58-.89,1.24-1.24-.06,.41,.02,.83,.04,1.24,.06Z"/><path class="cls-6" d="M31.94,37.86c.38,1.36,.17,1.15-1.12,.52,.56-.26,.84-.39,1.12-.52Z"/><path class="cls-6" d="M37.68,71.42c.12,.6,.24,1.19,.36,1.79-.94-.43-.87-1.07-.36-1.79Z"/><path class="cls-6" d="M31.23,35.63c.31-.3,.62-.59,.92-.89,.41,1.04-.35,.87-.92,.89Z"/><path class="cls-2" d="M70.67,109.85c.42,0,.84,0,1.27,0-.42,0-.84,0-1.27,0Z"/><path class="cls-6" d="M30.62,36.57c.2-.31,.39-.61,.59-.92-.2,.31-.39,.61-.59,.92Z"/><path class="cls-6" d="M34.62,36.29c-.4,.22-.81,.44-1.21,.66,.4-.22,.81-.44,1.21-.66Z"/><path class="cls-6" d="M62.73,34.49c.31,.18,.63,.35,.94,.53-.31-.18-.63-.35-.94-.53Z"/><path class="cls-6" d="M32.83,37.27c-.31,.2-.61,.41-.92,.61,.31-.2,.61-.41,.92-.61Z"/><path class="cls-6" d="M51.68,37.63c-.21-.24-.41-.49-.62-.73,.21,.24,.41,.49,.62,.73Z"/><path class="cls-6" d="M88.98,112.66c-.2,.19-.41,.38-.61,.57,.2-.19,.41-.38,.61-.57Z"/><path class="cls-6" d="M30.07,37.2c.18-.21,.37-.42,.55-.63-.18,.21-.37,.42-.55,.63Z"/><path class="cls-6" d="M35.66,36.01c-.35,.1-.7,.19-1.05,.29,.35-.1,.7-.19,1.05-.29Z"/><path class="cls-6" d="M36.87,35.71c-.35,.09-.71,.17-1.06,.26,.35-.09,.71-.17,1.06-.26Z"/><path class="cls-6" d="M53.54,37.5c-.2,.11-.39,.23-.59,.34,.2-.11,.39-.23,.59-.34Z"/><path class="cls-2" d="M69.76,109.8c.09,0,.18,0,.28,0-.09,0-.18,0-.28,0Z"/><path class="cls-6" d="M33.43,36.94c-.2,.11-.4,.23-.6,.35,.2-.11,.4-.23,.6-.35Z"/><path class="cls-20" d="M84.97,115.64c-.19,.02-.37,.04-.56,.06,.19-.02,.37-.04,.56-.06Z"/><path class="cls-6" d="M88.33,113.26c-.18,.12-.36,.24-.53,.36,.18-.12,.36-.24,.53-.36Z"/><path class="cls-6" d="M39.86,43.57c.08,.22,.15,.44,.23,.66-.08-.22-.15-.44-.23-.66Z"/><path class="cls-6" d="M39.56,42.94c.1,.21,.2,.42,.3,.63-.1-.21-.2-.42-.3-.63Z"/><path class="cls-6" d="M42.83,37.78c-.11-.09-.22-.17-.32-.26,.11,.09,.22,.17,.32,.26Z"/><path class="cls-6" d="M29.76,37.79c.08-.11,.16-.23,.24-.34-.08,.11-.16,.23-.24,.34Z"/><path class="cls-6" d="M63.94,35.3c.11,.1,.23,.21,.34,.31-.11-.1-.23-.21-.34-.31Z"/><path class="cls-6" d="M64.3,35.62c.1,.1,.19,.21,.29,.31-.1-.1-.19-.21-.29-.31Z"/><path class="cls-2" d="M61.56,110.24c.06-.03,.12-.03,.18,0-.06,0-.12,0-.18,0Z"/><path class="cls-11" d="M71.11,47.62c-.97,1.92-1.93,3.84-2.9,5.76-1.12-1.44,.82-6.86,2.9-5.76Z"/><path class="cls-11" d="M86.86,49.12c-.81,.81-1.61,1.62-2.42,2.44-1.5-.97,1.88-4.46,2.42-2.44Z"/><path class="cls-11" d="M79.85,61.74c4.06-1.13,6.27,.47,.93,1.03,.89-.54-.5-.68-.93-1.03Z"/><path class="cls-4" d="M72.81,114.48c-1.58-.36-4.63,1.58-5.17-.21,1.72,.07,3.45,.14,5.17,.21Z"/><path class="cls-19" d="M84.15,117.85c-1.59-.7,1.42-1.69,1.1-.58-.37,.2-.73,.39-1.1,.58Z"/><path class="cls-19" d="M85.94,118.44c-1.19,.17-.35-.79-.63-1.13,.21,.38,.42,.75,.63,1.13Z"/><path class="cls-16" d="M97.88,102.84c4.21,6.06-1.84,3.42-1.82-2.02-.61-2.05,.64-4.76-.74-6.46-.33-4.03-.06-8.05,.03-12.08,0-1.49-.81-2.18-2.38-2.32-5.1-.23-2.95,6.65-4.64,9.73-2.38,13.49-15.1,16.2-26.91,14.71-4.35-.06-6.61-2.36-6.64-6.76,1.32-6.57-3.29-19.26,2.87-22.55-.05,6.74-4.15,25.23,3.86,27.28,34.7,3.71,17.35-20.21,31.52-24.81,8.35,.95,2.33,18.69,4.84,25.27Z"/><path class="cls-16" d="M100.33,112.69c-4.03-.93,5.72-2.95,1.08-5.75,4.9-.63,1.54,4.89-1.09,5.75h.02Z"/><path class="cls-6" d="M101.55,112.09c.52-.61,1.04-1.22,1.56-1.82-.52,.61-1.04,1.22-1.56,1.82Z"/><path class="cls-6" d="M103.13,110.28c.3-.53,.59-1.06,.89-1.6-.3,.53-.59,1.06-.89,1.6Z"/><path class="cls-6" d="M100.31,112.69c.41-.2,.82-.4,1.24-.61-.41,.2-.82,.4-1.24,.61Z"/><path class="cls-20" d="M101.08,113.49c-.04,.22-.2,.31-.35,.14-.01-.23,.17-.27,.35-.14Z"/><path class="cls-6" d="M104.01,108.37c-.19-.1-.18-.18,.01-.25,.02,.09,.01,.17-.01,.25Z"/><path class="cls-13" d="M34.95,113.53c.69-1.23,6.55-.38,7.02-3.28,7.05,3.64-3.77,5.49-7.02,3.28Z"/><path class="cls-14" d="M63.58,147.41c4.54,.51,1.19-3.7,2.86-6.29,2.69-3.09,3.53,6.21,.64,7.04-1.13-.49-2.26-.82-3.51-.76Z"/><path class="cls-17" d="M98.13,124.91c.64,1.31,.32,2.8,2,3.63-2.98,2.96-7.56-3.66-2-3.63Z"/><path class="cls-19" d="M83.51,119.04c.3-.07,.31,.11,.29,.35-.1-.12-.19-.24-.29-.35Z"/><path class="cls-10" d="M65.75,55.89c-1.78-1-6.06-.42-5.39-3.11,1.27,.63,8.32,2.31,5.39,3.11Z"/><path class="cls-10" d="M68.51,55.35c1.31-.05,2.63-.1,3.94-.15,.81,1.68-5.74,1.5-3.94,.15Z"/><path class="cls-4" d="M74.69,54.8c.54-1,1.08-2.01,1.62-3.01-3.19,6.18,11-3.21,.08-.09,9.27-3.96,5.05,3.08-1.7,3.1Z"/><path class="cls-4" d="M83.18,52.48c1.14,1.49,.39,3.58-.59,5.2-1.01-2.08-2.23-4.27,.59-5.2Z"/><path class="cls-11" d="M82.8,57.01c1.42-1.33,.88-2.92,.59-4.48,2.22-1.61,1.21,7.15-.59,4.48Z"/><path class="cls-19" d="M74.69,54.8c1.27-.02,4.65-1.93,3.33,.3-.87,.15-4.33,1.79-3.33-.3Z"/><path class="cls-19" d="M83.18,52.48c-1.05,.61-1.92,1.69-3.11,.8,1.08-.54,2.04-2.01,3.11-.8Z"/><path class="cls-11" d="M26.97,129.74c2.57,.07,5.26-1,7.35-2.11,3.09-2.77,3.74-6.87,3.72-9.84,4.86,8.06-6.18,15.04-12.34,12.77,4.07,1.73,14.07,7.1,8.94,13.32,.58-1.19,.76-2.45,.81-3.76-3.11,5.63,.31-.15-2.14-2.94-1.18-2.71-13.15-6.77-6.34-7.43Z"/><path class="cls-17" d="M38.05,117.79c1.44,6.58-3.82-3.36-7.5,.87-1.01,1.69,.94,3.15,1.62,4.51-1.58,.87-2.94,.45-4.32-1.33-2.13-6.64,6.77-8.38,10.21-4.05Z"/><path class="cls-4" d="M28.2,131.31c3.79-1.61,9.55-1.3,2.64,.73,3.88,3.19-1.06,.81-2.64-.73Z"/><path class="cls-11" d="M38.04,117.8c-.43-.46-.85-.93-1.28-1.39,.43,.46,.85,.93,1.28,1.39Z"/><path class="cls-19" d="M22.14,18.2c.17,.62,.34,1.24,.51,1.87-.17-.62-.34-1.24-.51-1.87Z"/><path class="cls-19" d="M20.23,15.79c.15,.15,.3,.3,.44,.45-.48,.08-.63,.06-.44-.45Z"/><path class="cls-19" d="M20.97,16.59c.17,.14,.34,.28,.51,.42-.17-.14-.34-.28-.51-.42Z"/><path class="cls-19" d="M21.48,17.01c.14,.2,.28,.4,.41,.61-.14-.2-.28-.4-.41-.61Z"/><path class="cls-19" d="M20.67,16.3c.1,.1,.2,.2,.3,.3-.1-.1-.2-.2-.3-.3Z"/><path class="cls-4" d="M84.12,124.26c-1.86-1.24-2.89-3.53-5.46-2.63-3.11,1.56-3.6-2.5-.64-3.14-4.4,5.21,5.78,.04,6.1,5.77Z"/><path class="cls-4" d="M84.48,131.92c-1.18-1.89-.04-5.28-.36-7.67,1.38,2.28,1.29,5.35,.36,7.67Z"/><path class="cls-19" d="M80.43,120.88c-1.48,.22-5.46,.8-2.85-1.59-.33,1.54,1.87,1.09,2.85,1.59Z"/><path class="cls-19" d="M82.29,118.48c.41,.19,.83,.38,1.24,.58-.38-.26-1.56,1.18-1.24-.58Z"/><path class="cls-19" d="M77.91,119.03c.08-.21,.02-.73,.36-.51-.12,.17-.24,.34-.36,.51Z"/><path class="cls-19" d="M77.6,119.31c.12-.1,.23-.2,.35-.3-.12,.1-.23,.2-.35,.3Z"/><path class="cls-17" d="M33.33,142.77c1.71-.14,1.37-1.65,2.13-2.65,1.18,8.71-12.56,2.96-5.37-1.86-.78,2.96-.06,5.46,3.24,4.51Z"/><path class="cls-11" d="M33.33,142.8c-.8,.04-1.59,.08-2.39,.12,.8-.04,1.59-.08,2.39-.12Z"/><path class="cls-11" d="M34.07,144.31c.19-.15,.38-.3,.57-.45-.19,.15-.38,.3-.57,.45Z"/><path class="cls-4" d="M32.53,133.37c.09-.02,.16,0,.23,.05-.12,.18-.2,.16-.23-.05Z"/><path class="cls-13" d="M60.37,52.78c.38,6.93-2.9,16,4.19,20.49-7.83,6.54-3.9,18.52-3.97,27.44-6.11-.1-2.61-10.74-3.7-15.08-.05-5.19-.39-10.59,3.9-14.26-6.12-2.97-5.15-24.62-1.31-29.24,1.74-1.67,8.39-.52,7.38-2.52-3.1-7.3,4.65-.33,3.48,3.58-6.33-1.21-11.3,3.03-9.97,9.59Z"/><path class="cls-4" d="M68.8,146.28c2.04-.63,4.03-1.48,6.14-1.85-1.15,1.07-6.58,3.69-6.14,1.85Z"/><path class="cls-4" d="M75.55,144.13c1.44-1.11,2.88-2.23,4.31-3.34-1.44,1.11-2.88,2.23-4.31,3.34Z"/><path class="cls-4" d="M82.56,137.08c-.29-1.87,.85-3.19,1.77-4.59-.59,1.53-1.18,3.06-1.77,4.59Z"/><path class="cls-4" d="M80.48,139.87c-.05-.79,.62-1.65,1.58-2.03-.53,.68-1.06,1.35-1.58,2.03Z"/><path class="cls-21" d="M68.8,146.28c-.95,2.12-.06-1.06,.29-1.88-.1,.63-.19,1.25-.29,1.88Z"/><path class="cls-4" d="M82.1,137.81c.15-.24,.3-.48,.45-.72-.15,.24-.3,.48-.45,.72Z"/><path class="cls-17" d="M18.37,125.46c1.94,1.78,1.01,3.68-1.06,1.51-4.53-2.02-1.42-6.61,1.06-1.51Z"/><path class="cls-17" d="M14.85,121.81c.19-.23,.25-.08,.36,.12-.19,.12-.28,.1-.36-.12Z"/><path class="cls-4" d="M68.15,140.82c-4.87,.04-1.6-3.66,.72-1.75,.95,.84,2.28,1.23,3.53,.78-4.08-3.48-7.43-12.25-.2-4.9-2.27,.47-5.37-4.21-2.52,.34,.85,3,9.31,5.63,1.27,5.37-.99,.02-2.81-1.77-2.8,.16Z"/><path class="cls-11" d="M67.65,131.88c.95,1.83-1.74,3.71-1.12,.92-2.23,1.9-7.21,3.18-9.36,.7,3.67,1.76,6.83,.15,8.87-3.13,.16,1.01-.06,2.2,1.61,1.51Z"/><path class="cls-19" d="M72.2,134.96c-3.92-2.3-4.86-7.16-.33-2.11,4.23,.04,5.17,2.75,.33,2.11Z"/><path class="cls-4" d="M71.86,132.85c-2.12-1.73-3.34-3.79-3.83-6.48,1.15,2.23,2.51,4.34,3.83,6.48Z"/><path class="cls-4" d="M67.92,122.13c.35,1.22,1.06,2.45,.02,3.68,0-1.23-.01-2.45-.02-3.68Z"/><path class="cls-11" d="M66.13,125.77c-.58-.84-1.15-1.69-1.73-2.53,1.21,.12,1.93,1.18,1.73,2.53Z"/><path class="cls-4" d="M67.94,117.25c0,.81-.02,1.62-.02,2.44,0-.81,.02-1.62,.02-2.44Z"/><path class="cls-4" d="M67.93,120.3c0,.2,0,.4,0,.61,0-.2,0-.4,0-.61Z"/><path class="cls-11" d="M64.38,123.21c-.27-.24-.54-.49-.81-.73,.27,.24,.54,.49,.81,.73Z"/><path class="cls-21" d="M60.59,100.71c-.34-5.15-2.33-10.2,4.43-6.36,4.1,4.17,.84,9.58-4.43,6.36Zm5.14,.13c.1-3.28-1.65-8.23-5.32-6.3,1.52,3.18-.72,6.91,5.32,6.3Z"/><path class="cls-3" d="M69.91,98.42c4.2,3.34,2.17,2.88-2.04,2.84,2.7-.7,4.96,.53,2.04-2.84Z"/><path class="cls-19" d="M25.11,16.69c1.41,.93,.5,2.7-.89,2.3,.3-.77,.59-1.53,.89-2.3Z"/><path class="cls-19" d="M25.38,15.42c-.1,.43-.19,.86-.29,1.29,.1-.43,.19-.86,.29-1.29Z"/><path class="cls-19" d="M26.12,18.02c.23-.12,.45-.24,.68-.36-.23,.12-.45,.24-.68,.36Z"/><path class="cls-19" d="M30.71,12.83c-.79,.74-.46-1.45,.65-1.18-.22,.39-.43,.79-.65,1.18Z"/><path class="cls-19" d="M31.66,11.34c-.1,.1-.2,.2-.3,.3,.1-.1,.2-.2,.3-.3Z"/><path class="cls-4" d="M54.29,22.27c1.62-1.55,2.68-3.65,3.8-.61,.75,2.29-1.6,2.97-2.36,4.47-1.96,2.67-1.13-2.53-1.44-3.86Zm2.71-1.62c-2.45,1.67-2.94,3.27-1.39,4.84,.86-1.47,2.74-2.57,1.39-4.84Z"/><path class="cls-5" d="M58.09,21.66c-.71-1.11-1.48-2.07-.87-3.4,1.75,.29,1.13,2.27,.87,3.4Z"/><path class="cls-17" d="M54.53,27.05c1.77,.24-.13,2.06-.84,2.76,.28-.92,.56-1.84,.84-2.76Z"/><path class="cls-21" d="M26.97,129.74c-1.37,.06-2.37,.2-2.45-1.45,.82,.48,1.63,.97,2.45,1.45Z"/><path class="cls-11" d="M92.64,24.04c-1.06-2.24-2.86-2.91-2.15,.03-2.43-3.61,2.11-3.76,2.15-.03Z"/><path class="cls-25" d="M89,21.1c-1.3-2.35,2.87-3.15,3.04-.6-1.01,.2-2.03,.4-3.04,.6Z"/><path class="cls-14" d="M65.02,94.35c-2.06-.83-3.78-.66-2.47-3.1,1.37,.25,4.39,2.1,2.47,3.1Z"/><path class="cls-3" d="M69.87,98.37c-1.58-.36-1.47,.92-1.96,2.07-.2-1.98-.19-4.61,1.96-2.07Z"/><path class="cls-14" d="M66.12,93.62c.17,0,.33,.02,.5,.03-.17,0-.33-.02-.5-.03Z"/><path class="cls-3" d="M67.92,100.76c.05,.07,.06,.14,.03,.22-.18-.05-.18-.12-.03-.22Z"/><path class="cls-25" d="M36.93,132.34c.53-.14,.7-.18,.87-.23-.26,.46-.09,.44-.87,.23Z"/><path class="cls-25" d="M38.58,132.21c0,.1,0,.2,0,.3,0-.1,0-.2,0-.3Z"/><path class="cls-5" d="M69.14,96.46c.06,.15,.34,.31,.11,.41-.03-.14-.13-.28-.11-.41Z"/><path class="cls-7" d="M94.14,94.37c.25,4.62-1,10.33,3.44,13.42,2.84,1.15,.63,3.1-1.78,1.43-1.9-.56-2.59-3.34-4.37-3.34-.73-3.61,1.35-5.27,1.46-8.5,.06-1.55-2.29-2.94-2.35-.56-1.44,1.84-3.79-.1-3.49,3.41-2.81,1.15-3.2,1.63-3.12,4.62-4.02,6.39-15.35,2.59-22.13,3.83-9.3,.6-11.69-5.67-10.67-13.54-.07-15.85,.2-31.7,0-47.55-.08-2.16,1.9-4.37,.25-6.41,3.01-1.86,5.49-4.31,9.18-3.99-2.4,3.5-7.71,2.98-7,10.63-.86,8.26-1.04,17.03,2.43,24.55-5.46,8.53-2.15,20.28-1.49,29.88,3.59,6.23,18.21,3.89,24.41,2.24,4.96-2.18,7.6-7.3,10.21-11.57,.02-9.04,5.19-19.01,4.76-3.17-.5,.68,.38,3.21,.25,4.62Z"/><path class="cls-7" d="M37.95,106.54c7.6-3.76,5.05-26.81,2.32-33.91,1.71-6.47,2.7-13.54,2.22-20.68,2.73-5.73-10.41-19.37-.46-12.71,.76,3.51,3.62-.92,2.51,4.22,1.33,16.67-.46,37.1,.04,55.21,1.57,2.8-1.07,3.46,0,6.76-1.99,1.01-11.95,6.34-6.62,1.12h0Z"/><path class="cls-9" d="M91.42,101.19c-.36,3.68,.03,3.85,2.13,6.53-2.82-2.46-5.39,2.9-8.45,3.78-.49-2.36-2-4.44-1.17-6.66-.09-2.99,.31-3.47,3.12-4.62-.14-2,.61-2.86,1.93-2.21-2.7,2.01,.6,2.24,2.45,3.17Zm-6.69,3.63c.02,10.71,11.63-4.36,1.94-3.41-1.41,.45-1.9,1.36-1.94,3.41Z"/><path class="cls-1" d="M41.7,76.66c1.35,7.9,1.5,16.88-.07,24.7,.74-8.21-.25-16.46,.07-24.7Z"/><path class="cls-6" d="M55.87,68.76c-1.08-6.85-3.94-23.95,2.28-27.88-5.52,7.58-2.08,19.02-2.28,27.88Z"/><path class="cls-1" d="M42.87,105.78c3.61,.08-.27-3.33,2.66-4.99-1.87,3.69,1.94,10.62,4.65,4.64,3.77-.58-1.76,3.51-2.57,4.93-1.56-1.71-2.5-3.82-4.74-4.58Z"/><path class="cls-9" d="M45.21,45.11c-3.23-2.43,4.06-14.73,4.38-5.87-2.76-1.76-4.54,3.73-4.38,5.87Z"/><path class="cls-9" d="M57.13,37.45c-7.33,3.51-3.76,4.13-6.33,9.5-1.23-1.25,1.45-4.18-.94-7.29,3.08,1.34,4.34-2.55,7.28-2.21Z"/><path class="cls-1" d="M41.62,44.85c1.63,7.43,1.37,16.49-.36,23.75,1.28-7.85,.84-15.88,.36-23.75Z"/><path class="cls-6" d="M59.37,70.47c2.9,.93-1.59,5.08-3.54,4.87,1.03-.96,2.11-5.87,2.86-3.02,1.5-.22,.66-1.18,.68-1.84Z"/><path class="cls-8" d="M53.57,66.19c-.62-5.97-.59-12.4,0-18.38,0,6.13,0,12.25,0,18.38Z"/><path class="cls-1" d="M37.96,106.53c-3.69,2.51-.31,2.54,2.3,1.57-3.51,2.86-8.37,.07-2.3-1.57Z"/><path class="cls-8" d="M77.43,104.98c-5.25,1.53-11.2,1.21-16.53,.65,5.52,.05,11.03-.05,16.53-.65Z"/><path class="cls-1" d="M40.1,70.91c-.07,1.93,.91,3.62,1.53,5.39-.82-1.82-3.46-3.45-1.53-5.39Z"/><path class="cls-25" d="M94.14,94.37c-.05-1.54-.42-3.09-.25-4.62,.07-.73,.23-1.64,.34-2.43-.03,2.35-.06,4.71-.09,7.06Z"/><path class="cls-8" d="M53.28,89.63c.23-3.99-.55-8.2,.32-12.08-.23,3.99,.6,8.22-.32,12.08Z"/><path class="cls-8" d="M69.73,108.66c3.36-.75,7.04-.24,10.51-.52-3.32,.08-7.66,1.21-10.51,.52Z"/><path class="cls-1" d="M39.17,37.52c-2.5-.21-1.63,.28-.61,1.83-4.37-.7-2.44-3.27,.98-1.83-.12,0-.24,0-.36,0Z"/><path class="cls-1" d="M69.73,108.66c-2.58,.61-7.13,.44-10.17,.08,3.39-.12,6.78-.05,10.17-.08Z"/><path class="cls-1" d="M51.66,39.95c-1.99,.1-2.31-1.07-2.37-2.83,.79,.94,1.58,1.88,2.37,2.83Z"/><path class="cls-8" d="M94.23,87.31c-.12,.82-.23,1.63-.35,2.45-.03-2.88,.28-5.78-.6-8.58,1.76,1.48,.66,4.09,.95,6.13Z"/><path class="cls-1" d="M57.79,39.33c.74-.78,3.47-.8,2.78-2.15,4.29,.86-1.11,1.64-2.78,2.15Z"/><path class="cls-1" d="M58.52,105.29c-2.13-.19-3.74-1.42-4.01-3.05,1.34,1.02,2.67,2.03,4.01,3.05Z"/><path class="cls-6" d="M58.05,71.19c-.53-.82-1.98-1.76-2.04-2.53,.55,.83,1.88,1.74,2.04,2.53Z"/><path class="cls-9" d="M44.34,40.52c-1.5,.76-1.89,.07-2.31-1.28,.77,.43,1.54,.86,2.31,1.28Z"/><path class="cls-9" d="M39.17,37.52c.83,.02,1.46,.82,2.2,1.17-.73-.39-1.47-.78-2.2-1.17Z"/><path class="cls-9" d="M51.76,105.71c-.23-.6,.78-.03,1.14-.05-.38,.02-.76,.04-1.14,.05Z"/><path class="cls-8" d="M93.28,81.18c-.66,.1-1.32,.2-1.98,.3,.66-.1,1.32-.2,1.98-.3Z"/><path class="cls-25" d="M94.22,96.46c-.03-.52-.05-1.04-.08-1.56,.03,.52,.05,1.04,.08,1.56Z"/><path class="cls-8" d="M78.92,104.48c-.47,.17-.93,.34-1.4,.51,.47-.17,.93-.34,1.4-.51Z"/><path class="cls-1" d="M59.74,105.57c-.34-.08-.67-.16-1.01-.24,.34,.08,.67,.16,1.01,.24Z"/><path class="cls-25" d="M94.18,97.71c0-.13,0-.26-.01-.38,0,.13,0,.26,.01,.38Z"/><path class="cls-25" d="M94.17,97.14c0-.14,0-.29,0-.43,0,.14,0,.29,0,.43Z"/><path class="cls-16" d="M58.16,71.09c-5.54-6.43-1.64-16.63-2.8-24.53-.87-2.71,5.67-8.66,4.32-4.46-4.34,4.31-4.21,23.6-.3,28.37,.7,1.34-.66,2.76-1.21,.62Z"/><path class="cls-5" d="M80.07,53.28c1.97,.44,1.42,3.01,2.52,4.4-2.53,3.39-7.11-3.91-2.52-4.4Z"/><path class="cls-5" d="M82.8,57.01c.36,.58,.69,.72-.14,.76-.17-.19,.11-.52,.14-.76Z"/><path class="cls-11" d="M82.77,57.72c.16,0,.33,0,.49,0-.16,0-.33,0-.49,0Z"/><path class="cls-4" d="M73.07,135.07c13.2-.44,3.64-16.01-.72-6.03-.81-6.89,10.62-3.59,7.72,2.46-.59,2.92-4.46,5.41-7,3.57Z"/><path class="cls-4" d="M75.23,133.43c-1.12-.2-2.24-.39-3.36-.59,3.67,1.26,6.49-3.52,1.54-3.38,3.16-1.89,4.57,3.06,1.82,3.97Z"/><path class="cls-19" d="M75.23,128.88c-3.31,2.02-3.18-3.4,.02-2.85,.4,1.21-.78,.2-.98,.69-1.25,1.44-.33,1.33,.95,2.16Z"/><path class="cls-18" d="M69.68,135.3c-.48-.65-.95-1.3-1.43-1.95,.6-1.07,2.92,1.84,1.43,1.95Z"/><path class="cls-21" d="M69.08,144.4c-.14-.71-.29-1.42-.43-2.13,1.57,1.26,1.61,1.44,.43,2.13Z"/><path class="cls-21" d="M68.56,141.94c-.11-.29-.22-.58-.32-.86,.11,.29,.22,.58,.32,.86Z"/><path class="cls-20" d="M57.2,98.3c.5,.83,.99,1.66,1.49,2.5-.5-.83-.99-1.66-1.49-2.5Z"/><path class="cls-21" d="M27.84,121.84c1.38,1.78,2.75,2.2,4.32,1.33-1.35-1.56-2.02-3.92,0-5.32,1.14-.61,5.38,.62,2.45,.85-3.61-1.48-4.1,3.41-.71,4.35-1.75,1.34-6.74,2.21-6.06-1.22Z"/><path class="cls-21" d="M36.41,118.83c1.79,1.65,.49,3.98,.38,6.09-.13-2.03-.25-4.06-.38-6.09Z"/><path class="cls-21" d="M34.36,127.71c-1.53,.62-3.07,1.23-4.6,1.85,1.03-1.17,3.02-1.96,4.6-1.85Z"/><path class="cls-21" d="M36.8,124.93c-.81,.92-1.62,1.85-2.43,2.77,.68-1.04,.7-2.65,2.43-2.77Z"/><path class="cls-11" d="M18.37,125.46c-.07-.21-.13-.43-.2-.64,.07,.21,.13,.43,.2,.64Z"/><path class="cls-17" d="M62.71,133.09c-.55,2.58-5.24,.93-6.2-.51-1.39-4.16,2.54-7.05,6.31-4.42-3.19,.59-3.97,5.07-.11,4.92Z"/><path class="cls-17" d="M66.42,134.35c.69-1.88,8.29,6.87,4.47,5.69-1.88-.26-3.41-3.12-4.87-.68-1.12,.49-2.96,.4-1.86-1.14,.96-.88,1.54-2.62,2.26-3.87Z"/><path class="cls-19" d="M64.16,138.22c-1.17,1.93,.76,.84,1.29,1.62-2.92,1.18-4.94,.28-1.29-1.62Z"/><path class="cls-11" d="M56.18,129.72c.12,.96,.24,1.92,.35,2.87-.12-.96-.24-1.92-.35-2.87Z"/><path class="cls-4" d="M66.36,141.39c-.19,.51-.39,1.02-.58,1.53,.19-.51,.39-1.02,.58-1.53Z"/><path class="cls-11" d="M56.52,132.59c.22,.3,.43,.61,.65,.91-.22-.3-.43-.61-.65-.91Z"/><path class="cls-19" d="M64.78,137.55c-.21,.24-.43,.47-.64,.71,.21-.24,.43-.47,.64-.71Z"/><path class="cls-11" d="M62.55,91.25c-.23,1.34-.68,2.36-2,1.27-.34-1.42,.64-2.7,2-1.27Z"/><path class="cls-15" d="M61.61,90.56c-1.47,.05-.96,1.16-1.05,1.96-1.24,.43-1.09-4.79,1.05-1.96Z"/><path class="cls-5" d="M65.75,55.89c.11,0,.23,0,.34,0-.11,0-.23,0-.34,0Z"/><path class="cls-25" d="M76.39,51.71c1.41-.04,4.22-1.44,4.91,.03"/><path class="cls-19" d="M80.09,53.31c-.09,.03-.17,.05-.26,.08,.07-.06,.16-.09,.26-.08Z"/><path class="cls-17" d="M28.2,131.31q-1.66,.52-2.5-.75c.96,.21,2.97-.61,2.5,.75Z"/><path class="cls-11" d="M32.15,117.85c-1.22,.82-1.36,2.05-1.26,3.37-1.27-1.14-.5-3.15,1.26-3.37Z"/><path class="cls-11" d="M35.5,118.04c-.78-.13-1.56-.25-2.34-.38,.78,.13,1.56,.25,2.34,.38Z"/><path class="cls-6" d="M59.05,42.61c.14-.16,.29-.31,.43-.47-.14,.16-.29,.31-.43,.47Z"/><path class="cls-6" d="M58.46,43.33c.13-.2,.26-.4,.39-.6-.13,.2-.26,.4-.39,.6Z"/><path class="cls-17" d="M75.23,128.88c-4.68-1.88,3.45-4.72,4.15-.9,1.72,2.5-2.22,9.05-4.15,5.46,1.73-.85,2.31-3,0-4.55Z"/><path class="cls-1" d="M50.8,46.95c.83,16.76,.56,36.04,.04,52.91-.26-17.56,.05-35.29-.04-52.91Z"/><path class="cls-24" d="M91.42,101.19c-3.77-1.03-4.36-2.26-.85-4.4,2.3-1.13,1.32,3.48,.85,4.4Zm-.38-3.34c-1.43-.05-2.08,1.93,0,2.17,0-.91,0-1.54,0-2.17Z"/><path class="cls-9" d="M51.38,105.33c-2.14,.04,1.02-4.84-3.41-5.16,.93-.12,1.9-.37,2.8-.37,.54,1.75,1.08,3.64,.61,5.53Z"/><path class="cls-9" d="M91.69,100.95c.17-1.69,.31-3.39,.68-5.06,.71,1.48,.92,4.17-.68,5.06Z"/><path class="cls-6" d="M92.36,95.89c-.12,.62-.23,1.24-.35,1.86-.14-.83-.3-1.63-1.44-.96,0-1.48,.76-1.46,1.79-.9Z"/><path class="cls-9" d="M51.14,98.3c.08-.51,.16-1.02,.24-1.52-.08,.51-.16,1.02-.24,1.52Z"/><path class="cls-8" d="M93.89,89.74c-.03,.19-.06,.38-.08,.57-.27-.32-.44-.49,.08-.57Z"/><path class="cls-9" d="M51.09,99.79c.02-.19,.03-.39,.05-.58-.02,.19-.03,.39-.05,.58Z"/><path class="cls-9" d="M51.14,47.58c0-.1-.01-.2-.02-.31,.06,.12,.18,.22,.02,.31Z"/><path class="cls-6" d="M90.54,96.82c-.11,.08-.23,.16-.34,.24,.11-.08,.23-.16,.34-.24Z"/><path class="cls-23" d="M50.8,46.95c-.05,14.15,.05,28.31-.08,42.46-2.3-4.22,2.12-49.43-4.51-40.62-3.63-.44,2-4.34,4.59-1.84Z"/><path class="cls-15" d="M47.96,100.18c8.48,3.78-4.92,14.8-2.63-.27,.87,.09,1.75,.18,2.63,.27Zm-.61,5.47c2.07-.57,1.88-3.42-.26-2.9-1.14,.91-.35,1.85,.26,2.9Z"/><path class="cls-1" d="M45.26,46.68c.1,17.63-.65,36.05-.11,53.3-1.42-17.34-.22-35.92,.11-53.3Z"/><path class="cls-6" d="M47.44,46.61c-2.11-.24-2.47-1.71-2.11-3.59-.14,1.8,1.22,2.35,2.11,3.59Z"/><path class="cls-8" d="M44.97,46.99c-.02,2.63-.04,5.26-.06,7.9,.02-2.63,.04-5.26,.06-7.9Z"/><path class="cls-15" d="M84.73,104.83c.04-2.05,.53-2.96,1.94-3.41,9.69-.95-1.93,14.12-1.94,3.41Zm1.27,.06c1.26,2.25,1.68,1.07,2.91-.4-1.32-1.61-1.84-1.31-2.91,.4Z"/><path class="cls-15" d="M47.44,46.61c-1.12-1.34-2.82-2.52-1.81-4.52,.78-1.32,2.25-4.62,4-2.75,1.87,2.76,2.33,7.39-2.2,7.27Zm-.57-2.8c1.98,1.71,4.21-1.6,1.3-3.05-.47,1.1-.89,2.07-1.3,3.05Z"/><path class="cls-6" d="M45.91,41.44c-.09,.22-.18,.43-.27,.65,.09-.22,.18-.43,.27-.65Z"/><path class="cls-6" d="M45.62,42.11c-.1,.3-.2,.61-.3,.91,.1-.3,.2-.61,.3-.91Z"/><path class="cls-1" d="M50.52,46.63c-.21-.13-.41-.25-.62-.38,.48-.13,.74-.23,.62,.38Z"/><path class="cls-9" d="M49.87,39.65c-.08-.1-.16-.21-.23-.31,.08,.1,.16,.21,.23,.31Z"/><path class="cls-18" d="M49.73,75.39c1.64,4.53-.19,9.95,.99,14.69-2.23,.43-.32-12.24-.99-14.69Z"/><path class="cls-23" d="M49.69,89.44c1.87,1.93,.97,7.21,.93,10.4,.16-2.21-1.15-4.63-.19-6.52-.67-1-1.52-2.54-.74-3.88Zm.59,2.21c.23,.04,.08-.3,.12-.46-.23-.04-.08,.3-.12,.46Z"/><path class="cls-22" d="M91.04,97.85v2.17c-2.08-.24-1.43-2.22,0-2.17Z"/><path class="cls-18" d="M49.73,94.94c2.56,3.8-.37,6.22-4.4,4.96-.99-16.73,.01-33.7-.01-50.51,3.15-.22-3,66.26,4.41,45.54Z"/><path class="cls-24" d="M49.73,94.94c.49,3.25-.12,4.53-3.67,3.95-.37-6.39,0-12.66-.07-19.04,1.33-9.95-2.33-24.21,1.62-32.14,3.63-.47,1.47,4.69,2.02,7.13,.13,13.51,.05,26.92,.1,40.09Z"/><path class="cls-22" d="M47.35,105.65c-.61-1.05-1.4-1.99-.26-2.9,2.15-.52,2.34,2.33,.26,2.9Z"/><path class="cls-22" d="M86,104.88c1.07-1.72,1.59-2.02,2.91-.4-1.23,1.48-1.65,2.65-2.91,.4Z"/><path class="cls-22" d="M46.87,43.81c.43-3.06,3.21-3.47,2.55-.22-.39,.48-2.07,1.19-2.55,.22Z"/><path class="cls-23" d="M49.78,80.24c-.07-.08-.08-.16,0-.24,.08,.08,.08,.16,0,.24Z"/><path class="cls-23" d="M49.78,88.79c-.08-.08-.08-.16,0-.24,.08,.08,.08,.16,0,.24Z"/><path class="cls-23" d="M49.73,84.85c0-.1,0-.19,0-.29,.04,.11,.13,.21,0,.29Z"/><path class="cls-23" d="M49.78,81.46c-.07-.08-.08-.16,0-.24,.08,.08,.08,.16,0,.24Z"/><path class="cls-23" d="M49.78,78.4c-.07-.08-.08-.16,0-.24,.08,.08,.08,.16,0,.24Z"/><path class="cls-23" d="M49.78,86.96c-.07-.08-.08-.16,0-.24,.08,.08,.08,.16,0,.24Z"/><path class="cls-23" d="M49.78,82.99c-.08-.08-.08-.16,0-.23,.08,.08,.08,.16,0,.23Z"/><path class="cls-18" d="M49.76,94.62c0-.72,.01-1.44,.02-2.16,1,.73,.53,1.34-.02,2.16Z"/><path class="cls-18" d="M50.28,91.65c.04-.17-.11-.5,.12-.46-.04,.17,.11,.5-.12,.46Z"/><path class="cls-23" d="M49.6,98.89c.06-.18,.11-.36,.17-.54-.06,.18-.11,.36-.17,.54Z"/><path class="cls-23" d="M49.78,96.13c-.07-.08-.07-.16,0-.24,.08,.08,.08,.16,0,.24Z"/><path class="cls-23" d="M49.78,97.35c-.08-.08-.08-.16,0-.24,.08,.08,.08,.16,0,.24Z"/></g></g></svg>