<?xml version="1.0" encoding="UTF-8"?><svg id="Calque_1" xmlns="http://www.w3.org/2000/svg" viewBox="0 0 3000 3000"><path d="M2506.16,2229.7c2.55,3.26,5.11,6.51,8.22,10.49-1.29-13.33-3.37-15.63-22.17-24.99,6.53-6.35,15.61-4.9,25.36-8.84-9.74-3.97-17.99-6.25-25.05-10.51-7.36-4.44-14.14-10.22-20.1-16.45-5.72-5.97-10.7-12.89-14.84-20.06-4.32-7.5-7.85-15.6-10.6-23.82-2.69-8.05-6.15-16.25-4.42-25.93,9.7,1.28,17.26,6.5,22.42,12.76,10.82,13.13,21.79,14.12,37.13,7.95,22.17-8.91,44.89-5.5,66.95,2.87,32.92,12.48,53.59,37.12,68.53,67.83,17.34,35.64,27.26,73.33,29.37,112.69,1.22,22.72-.51,45.65-1.7,68.44-.58,11.16-3.1,22.22-4.46,33.35-.47,3.9-.08,7.9-.08,12.93,2.72-.97,5.06-1.42,7.01-2.55,55.12-31.89,88.63-78.97,100.97-141.64,3.27-16.61,.5-30.32-8.97-44.13-9.84-14.35-18.04-29.82-26.74-44.94-4.04-7.02-6.58-14.62-5.68-22.9,.21-1.91,1.44-3.71,3.07-7.68,6.39,9.25,6.99,19.03,11.72,26.81,5.1,8.38,9.64,17.11,14.98,25.32,4.98,7.66,7.75,17,17.27,23.86,.91-11.48,2.41-21.41,2.36-31.34-.18-33.88,3.85-67.42,7.32-101.01,.48-4.68,1.34-9.36,2.56-13.89,.35-1.29,2.6-2.86,3.97-2.84,1.39,.01,3.51,1.57,3.96,2.91,.78,2.29,.92,5,.61,7.43-4.57,35.68-7.53,71.42-8.72,107.43-1.02,30.78-4.82,61.52-8.57,92.13-4.76,38.86-24.06,70.98-48.6,100.6-21.61,26.08-47,47.33-76.55,63.81-3.11,1.73-5.83,5.5-7.12,8.93-10.02,26.76-24.35,51.02-41.44,73.8-5.43,7.24-9.95,15.16-15.29,22.47-14.62,20-31.73,37.76-50.96,53.27-18.36,14.81-38.01,27.81-60.82,35.02-10.3,3.25-20.7,6.21-31.15,8.91-2.89,.75-6.14,.11-11.83,.11,4.61-4.2,7.36-6.71,10.08-9.19-3.3-1.58-7.69-2.37-9.59-4.97-1.84-2.51-1.45-6.9-1.46-10.47-.1-25.81,0-51.61-.11-77.42-.02-4.61-.64-9.21-1.11-15.43-3.78,1.68-6.45,2.44-8.63,3.91-17.27,11.71-32.79,25.56-45.13,42.32-16.57,22.5-32.37,45.6-47.87,68.86-10.72,16.09-11.34,16.89-29.93,13.76-2.86-.48-5.75-.8-8.64-.98-69.85-4.34-136.53,8.12-200.55,36.48-36.64,16.23-71.77,35.05-105.63,56.37-4.8,3.02-9.11,6.8-15.32,11.5,6.91,3.37,11.86,6.28,17.15,8.28,33.71,12.74,68.3,22.41,103.96,27.76,15.04,2.26,30.26,3.58,45.45,4.58,12.56,.83,24.49-2.41,35.6-8.42,5.75-3.11,11.67-5.94,17.24-9.35,25.54-15.64,53.03-27.01,80.99-37.36,2.29-.85,4.8-1.08,6.86-1.52,3.37,3.18,2.49,6.01-.06,7.86-3.18,2.31-6.76,4.3-10.44,5.67-26.65,9.83-52.24,21.8-76.66,36.38-8.71,5.2-18,9.46-27.18,13.83-22.01,10.49-45.01,9.21-68.34,5.95-31.76-4.45-62.26-14.1-93.34-21.4-16.88-3.96-34.31-5.64-51.48-8.37-6.5-1.03-11.73,1.28-17.24,4.8-8.8,5.63-17.99,10.97-27.67,14.78-12.22,4.81-23.62,1.85-32.65-8.05-16.4-17.99-32.68-36.09-49.02-54.13-30.57-33.75-63.15-65.27-100.62-91.44-16.02-11.19-33.27-19.24-52.51-22.88-2.85-.54-5.74-1.02-8.51-1.87-19.45-5.92-38.86-3.53-58.09,.69-98.08,21.5-197.33,30.53-297.61,27.01-88.84-3.12-176.38-16.17-262.72-37.29-72.8-17.8-144.09-40.15-212.85-70.3-67.53-29.61-130.78-66.46-189.56-110.97-3.68-2.78-7.48-5.41-13.28-9.6-.51,5.89-1.14,9.6-1.09,13.3,.65,47.24,1.3,94.48,2.15,141.71,.43,23.62,1.71,47.22,1.78,70.84,.05,16.68-.93,33.4-2.21,50.04-.43,5.6-2.26,11.57-5.11,16.39-5.15,8.73-15.35,8.31-19.85-.79-2.32-4.69-3.57-10.46-3.46-15.71,.48-23.24,1.59-46.46,2.57-69.68,.26-6.17,1.11-12.32,1.24-18.48,1.37-61.04,2.51-122.09,4.06-183.12,.36-14.07-3.64-24.96-15.15-34.08-15.63-12.4-29.99-26.4-44.95-39.66-2.32-2.06-4.91-3.81-9.46-7.3-.25,6.41-.6,10.52-.55,14.62,.4,29.07,1.06,58.14,1.25,87.21,.06,8.69-.82,17.43-1.91,26.06-.53,4.21-2.14,8.44-4.02,12.29-1.81,3.73-5.08,6.25-9.68,5.67-4.62-.58-6.98-3.95-8.03-7.91-1.01-3.82-1.6-7.88-1.52-11.82,.3-15.26,1.06-30.51,1.43-45.76,.88-36.06-1.71-71.92-7.75-107.45-.83-4.86-4.83-9.58-8.31-13.52-24.27-27.52-49.73-54.05-73.09-82.31-115.55-139.83-197.91-296.92-243.82-472.78-16.37-62.7-27.54-126.33-33.54-190.8-4.92-52.86-6.73-105.92-4.55-158.98,4.69-114.28,24.7-225.84,60.93-334.42,34.24-102.63,81.15-199.03,141.49-288.84,40.54-60.35,88.98-113.92,141.61-163.8,54.91-52.05,112.04-101.46,174.26-144.74,48.74-33.91,100.97-61.76,153.28-89.58,76.65-40.77,156.33-73.69,240.24-96.24,41.81-11.23,83.9-21.43,127.17-24.16,30.41-1.92,61.03-1.75,91.51-.88,20.23,.58,40.4,3.93,60.56,6.31,3.52,.42,7.14,1.7,10.27,3.41,7.91,4.33,8.11,10.91,.76,15.9-1.42,.97-3.04,1.65-6.06,3.26,4.79,1.54,8.06,2.69,11.38,3.66,22.32,6.45,44.79,12.45,66.94,19.46,11.37,3.6,22.25,8.83,33.2,13.66,3.24,1.43,6.62,3.53,8.73,6.27,1.69,2.19,2.87,6.42,1.84,8.59-1.08,2.28-4.93,4.01-7.81,4.47-3.07,.49-6.44-.69-9.64-1.3-22.76-4.38-45.6-2.49-68.43-.85-2.74,.2-5.42,1.31-8.13,2-.36,6.05,3.67,6.31,7.16,6.65,8.31,.8,16.65,1.68,24.99,1.87,26.49,.59,51.68,7.24,76.47,15.9,2.05,.72,4.09,1.56,6,2.59,3.67,1.99,6.95,4.56,5.85,9.34-1.06,4.6-4.71,6.19-9.1,6.15-3.26-.03-6.54-.2-9.79-.52-10.48-1.02-20.94-2.28-31.43-3.16-4.56-.38-9.54-1.59-13.28,3.24,.47,6.24,6.03,6.87,10.16,7.63,11.77,2.15,23.68,3.5,35.55,5.06,11.87,1.56,23.8,2.71,35.61,4.64,4.55,.74,9.22,2.51,13.17,4.9,7.68,4.65,7.01,13.36-1.29,16.84-4.27,1.79-9.1,2.47-13.75,3.05-18.71,2.35-37.48,4.25-56.16,6.81-4.69,.64-9.12,3.11-13.67,4.73,.08,.88,.16,1.76,.24,2.64,3.36,.75,6.7,1.58,10.08,2.22,6.06,1.14,12.23,1.82,18.2,3.3,7.52,1.86,11.28,5.58,11.28,10.11,0,4.65-3.52,8-11.61,9.38-14.31,2.44-28.66,4.76-43.08,6.34-17.68,1.95-35.46,3.08-53.19,4.62-1.73,.15-3.42,.69-5.69,1.17,1.65,4.87,5.45,3.94,8.19,3.93,13.44-.04,26.88-.43,40.31-.69,30.51-.59,61.03-1.28,91.54-1.7,14.86-.21,29.72-.03,44.58,.24,3.18,.06,6.8,.55,9.38,2.17,2.41,1.51,5.12,4.8,5.11,7.3,0,2.51-2.7,6.42-5.07,7.25-6.08,2.14-12.59,3.65-19.02,4.1-15.58,1.1-31.2,1.6-46.81,2.07-17.35,.52-33.79,4.44-49.22,12.44-1.93,1-4.19,1.71-5.65,3.19-1.35,1.37-2.81,3.8-2.46,5.37,.36,1.6,2.68,3.33,4.48,3.88,2.35,.72,5.03,.39,7.57,.41,9.08,.08,18.17-.03,27.25,.26,3.96,.13,7.92,.91,11.82,1.69,3.89,.78,6.71,3.02,6.87,7.29,.17,4.34-2.76,6.56-6.43,7.75-4.13,1.35-8.31,2.78-12.58,3.42-7.53,1.14-15.17,1.53-22.71,2.56-7.17,.98-14.35,2.13-21.4,3.72-2.83,.64-5.36,2.65-8.03,4.03l.11,2.74c3.87,1.26,7.68,3.22,11.64,3.63,9.01,.93,18.12,1.69,27.15,1.44,25.42-.69,50.81-2.12,76.23-2.83,7.19-.2,14.49,.67,21.62,1.81,4.42,.71,8.17,3.39,8.67,8.53,.56,5.72-2.94,9.28-7.78,10.35-10.6,2.34-21.33,4.46-32.12,5.53-33.24,3.3-66.55,5.85-99.8,9.12-17.73,1.74-35.28,4.85-51.93,11.56-5.28,2.13-10.76,4.22-14.49,9.71,4.92,5.72,10.58,4.24,16.07,2.67,9.08-2.59,18.05-5.53,27.12-8.15,3.12-.9,6.36-1.48,9.59-1.8,4.7-.47,8.84,.79,10.61,5.68,1.6,4.44-.75,8.06-3.99,10.47-4.62,3.44-9.5,6.86-14.79,9.01-20.18,8.19-40.44,16.24-60.93,23.63-19.12,6.9-38.69,12.56-57.84,19.39-47.19,16.83-94.08,34.54-141.41,50.95-110.17,38.21-211.12,93.82-303.97,163.67-108.61,81.7-188.05,186.94-242.69,311.19-30.03,68.3-50.17,139.42-60.05,213.32-6.52,48.73-8.16,97.59-3.57,146.78,6.24,66.88,19.1,132.32,40.63,195.84,26.56,78.34,68.29,148.39,121.13,211.73,95.88,114.92,216.62,193.31,357.6,241.54,73.96,25.3,150.11,39.65,227.92,46.16,51.54,4.31,103.07,5.22,154.59,1.39,129.12-9.62,253.03-39.49,370.2-95.69,76.67-36.77,148.98-80.31,214.33-134.97,83.65-69.97,150.01-153.68,198.98-251.15,2.6-5.18,5.18-10.48,6.91-15.99,16.96-54.07,35.81-107.58,47.94-163.07,18.99-86.9,30.76-174.6,29.36-263.75-.83-53.14-5.98-105.88-14.68-158.32-9.17-55.22-19.13-110.31-34.05-164.29-27.14-98.19-70.65-189.03-125.66-274.51-30.32-47.11-62.82-92.63-99.39-135.15-2.13-2.47-4.21-5.04-5.86-7.84-1.84-3.13-3.66-6.78-.55-10.04,3.25-3.41,6.9-1.35,9.88,.62,3.62,2.39,6.9,5.32,10.21,8.15,37.15,31.71,70.5,67.13,101.83,104.52,4.9,5.85,9.73,11.76,14.68,17.57,2.4,2.81,2.49,2.73,8.32,3.66,2.08-5.53-2.23-8.84-4.7-12.45-24.72-35.98-51.04-70.77-80.4-103.09-19.78-21.78-40.61-42.6-60.92-63.9-2.99-3.14-6.18-6.28-8.33-9.97-1.2-2.05-1.57-6.41-.3-7.62,1.53-1.46,5.51-1.56,7.86-.69,3.66,1.35,6.97,3.83,10.21,6.13,31.75,22.53,61.85,47.11,90.42,73.57,3.18,2.95,6.52,5.84,10.18,8.12,1.35,.84,4.05,.29,5.7-.52,.61-.3,.6-3.53-.18-4.74-2.36-3.65-5.12-7.05-7.92-10.39-43.02-51.46-90.96-97.96-142.21-141.11-4.45-3.74-8.94-7.45-13.25-11.34-2.14-1.93-4.39-4.01-5.72-6.48-1.05-1.96-1.82-5.42-.8-6.78,1.07-1.42,4.75-2.07,6.7-1.38,4.05,1.44,7.8,3.83,11.5,6.1,117.63,72.05,217.58,163.34,299.6,274.38,44.14,59.76,85.53,121.18,116.14,189.15,46.34,102.9,79.28,209.91,97.31,321.46,13.32,82.38,19.6,165.2,18.08,248.65-.5,27.59,.31,55.21-.24,82.8-1.16,57.59-9.91,114.3-21.02,170.69-13.52,68.62-34.77,135.08-57.57,200.99-14.27,41.25-34.92,79.84-54.21,118.95-41.32,83.78-94.88,159.1-158.06,227.55-83.24,90.18-179.19,164.42-286,224.7-50.38,28.44-102.59,53.02-156.53,73.93-13.83,5.36-17.28,11.33-13.27,25.94,2.57,9.4,5.47,19.15,10.51,27.33,13.13,21.29,26.6,42.33,45.68,59.35,10.75,9.59,19.41,21.55,28.78,32.63,7.97,9.42,15.09,19.62,23.53,28.58,13.3,14.11,27.02,16.74,44.29,8.15,22.43-11.15,44.3-23.43,66.58-34.89,17.1-8.8,34.32-17.41,51.78-25.46,6.95-3.2,12.75-7.41,16.2-13.9,5.59-10.54,10.93-21.3,15.25-32.4,8.94-23,16.74-46.44,25.73-69.41,11.38-29.09,31.78-50.91,57.44-68.04,19.33-12.9,39.07-25.21,58.21-38.39,13.14-9.05,25.55-19.14,38.29-28.76,3.29-2.49,6.7-7.8,10.92-3.34,4.27,4.51-1.05,7.85-4.1,10.47-7.98,6.87-15.93,13.87-24.56,19.87-17.59,12.22-35.74,23.65-53.43,35.72-11.07,7.56-22.26,15.09-32.48,23.72-14.71,12.43-24.84,28.35-31,46.64-10.53,31.25-20.95,62.53-31.42,93.79,.64,.69,1.28,1.38,1.92,2.07,3.19-.89,6.43-1.64,9.56-2.7,19.6-6.59,38.84-14.57,58.83-19.55,25.34-6.31,51.4-9.46,77.57-10.55,22.12-.92,44.25-1.59,66.39-1.9,6.08-.09,9.79-2.22,13.52-7.01,23.43-30.09,46.6-60.43,71.23-89.53,11.87-14.03,26.37-25.95,40.43-37.95,5.3-4.52,7.59-8.89,7.65-15.6,.24-26.89,.58-53.78,1.38-80.66,.69-23.19,.96-46.49,3.43-69.52,3.17-29.56,11.36-57.68,30.85-81.38,5.08-6.18,4.54-6.88-1.94-13.55-7.72,6.66-13.4,15.61-22.93,20.71,3.27-19.18,12.01-35.5,24.88-51.86,.97,7.46,.91,13.27,2.64,18.48,1.76,5.31,4.79,10.55,11.31,11.88,2.79-4.29-1.17-5.36-2.83-7.22-7.09-7.96-7.73-12.3-2.99-22.53,.85,5.97,.89,12.21,2.81,17.81,1.39,4.07,5.23,7.38,11.85,4.4-5.83-6.34-13.73-11.29-7.73-20.62,.11,2.17-.16,4.44,.42,6.48,1.79,6.31,8.12,9.92,13.27,7.87,5.02-2,6.08-6.89,3.19-13.94-.96,.68-2.01,2.03-3.08,2.04-2.16,.02-4.95-1.68-6.33-.83-1.58,.98-1.91,3.97-2.71,5.92-1.67-2.5-3.31-4.94-4.94-7.38,1.68-5.07,5.38-7.99,10.51-7.53,5.25,.47,9.37,3.38,11.26,8.8,.82,2.36,2.12,4.56,3.58,7.63,3.22-6.59,.18-11.02-1.52-15.63ZM552.24,1237.64c1.24,1.73,2.52,5.18,4.84,6.13,1.58,.65,5.01-1.79,6.84-3.62,1.7-1.7,2.44-4.4,3.5-6.71,4.68-10.23,9.49-20.4,13.95-30.73,29.02-67.2,69.39-127.43,114.9-184.21,17.18-21.43,37.9-40.02,56.97-59.93,2.5-2.61,5.5-5.05,7-8.18,1.02-2.13,.64-5.85-.66-7.86-.89-1.38-4.59-1.79-6.74-1.31-2.72,.61-5.45,2.18-7.64,3.99-6.99,5.76-14.07,11.48-20.52,17.82-54.79,53.81-99.59,115.2-137.18,182-12.5,22.22-22.99,45.3-29.81,69.93-1.93,6.99-3.41,14.1-5.45,22.65Zm1883.95-154.46c-.92-5.34-1.39-9.32-2.3-13.19-13.07-55.58-35.93-107.18-63.93-156.66-1.42-2.51-2.88-5.31-5.07-6.99-2.02-1.55-5.06-1.79-7.65-2.6-.7,2.54-2.59,5.48-1.89,7.55,2.66,7.86,5.52,15.79,9.46,23.07,23.4,43.26,41.46,88.69,56.08,135.57,1.51,4.84,3.01,9.77,5.31,14.24,1.1,2.14,4.08,3.32,6.21,4.93,1.43-2.23,2.85-4.46,3.77-5.91ZM179.73,1698.29c2.02,17.79,6.31,37.15,14.57,55.48,1,2.22,2.68,4.39,4.57,5.91,4.12,3.3,9.01,1.63,9.76-3.57,.5-3.44-.08-7.22-1.01-10.63-4.63-17.11-9.41-34.19-14.4-51.2-1.26-4.28-1.58-9.92-7.73-10.52-3.81-.38-5.75,4.14-5.77,14.53Zm2349.08,470.46c.04-15.3-10.23-27.68-24.03-28.96-12.44-1.15-23.5,8.26-26.52,22.41-1.47,6.88,.75,12.96,3.94,18.74,5.75,10.4,17.57,16.1,27.2,13.42,12.35-3.44,19.37-12.7,19.41-25.61ZM793.48,910.23c-6.95,1.8-12.89,6.25-17.04,12.79-1.13,1.78-1.64,5.52-.58,6.76,1.55,1.79,5.14,3.41,7.23,2.84,7.53-2.06,13.31-7.01,16.59-14.13,1.94-4.21-1.06-8.2-6.2-8.25Zm1663.18,1743.07c.3,.68,.59,1.36,.89,2.04,1.19-.87,2.37-1.73,3.56-2.6-.31-.45-.61-.89-.92-1.34-1.18,.63-2.36,1.26-3.54,1.89Z"/><path d="M1818.19,848.86c-10.52,4.25-19.48,7.88-29.77,12.03,4.01,16.72,7.59,32.94,12,48.94,.79,2.87,4.61,5.61,7.67,7.02,6.24,2.87,12.9,4.82,19.41,7.08,3.69,1.28,7.42,2.43,12.86,4.2-8.62,9.93-20.35,11.2-30.59,16.94,.55,3.47,.86,6.99,1.71,10.38,2.57,10.21,5.74,20.29,7.92,30.59,1.64,7.76,6.02,12.07,13.36,13.97,5.97,1.55,11.93,3.13,17.9,4.66,3.82,.98,7.65,1.91,12,3-1.79,7.75-8.55,8.94-13.46,11.89-5.21,3.13-10.92,5.41-17.1,8.39,.94,4.03,1.58,7.54,2.59,10.94,3.64,12.18,7.78,24.23,10.99,36.52,1.89,7.22,6.06,11.31,12.88,13.19,6.64,1.84,13.32,3.56,19.98,5.32,3.44,.91,6.89,1.79,11.98,3.12-7.83,11.12-20.17,12.85-29.73,19.47,.39,2.51,.41,5.04,1.21,7.31,4.34,12.34,9.07,24.54,13.24,36.93,2.06,6.11,5.87,9.87,11.86,11.61,5.92,1.72,11.88,3.3,17.84,4.87,4.42,1.17,8.88,2.22,14.41,3.6-6.76,11.09-18.4,12.21-27.68,19.41,2.06,5.33,3.69,11.22,6.63,16.37,1.24,2.17,5.19,3.72,8.01,3.91,18.53,1.24,31.16,22.62,28.14,39.93-.8,4.6-3.37,7.99-8.01,9.46-3.42,1.08-6.85,2.11-9.89,3.04-5.08,10.72-.44,23.7-9.59,34.08-9.3-9.25-3.7-20.13-6.21-30.42-2.44,0-5.4-.72-7.82,.12-17.46,6.06-34.86,12.31-52.14,18.85-2.42,.91-5.29,3.38-5.96,5.71-4.18,14.53-7.8,29.23-12.23,46.29,5.84-1.68,9.45-2.66,13.02-3.77,18.01-5.6,35.98-11.34,54.04-16.76,4.48-1.35,9.25-1.77,13.91-2.49,15.41-2.38,30.78,7.84,34.59,22.93,2.64,10.46-1.02,16.77-11.5,19.55-3.85,1.02-7.76,1.93-11.7,2.53-20.3,3.09-39.31,10.1-57.89,18.55-10.58,4.81-21.23,9.45-31.79,14.31-3.53,1.62-6.85,3.7-10.1,5.47,.8,7.25,4.23,10.42,10.34,11.86,9.96,2.35,19.59,.29,29.1-1.77,9.56-2.07,18.86-5.3,28.29-7.95,11.31-3.17,21.82,1.64,26.77,12.28,3.49,7.5,4.05,15.47,2.79,23.48-1.05,6.65-5.09,11.75-11.74,12.89-20.71,3.55-41.46,7.12-62.33,9.52-24.32,2.8-51.08-14.67-56.82-45.08-2.99-15.83-3.2-31.72-1.69-47.74,3.22-34.17,11.83-67.15,21.52-99.92,2.06-6.96,3.89-13.99,5.96-20.96,1.97-6.64,6.2-11.57,12.48-14.31,2.47-1.08,6.19-2.01,8.2-.92,5.67,3.08,10.35,.99,15.53-.87,13.32-4.77,26.77-9.19,40.14-13.83,1.64-.57,3.09-1.68,5.22-2.87-65.52-166.5-111.01-337.92-134.85-517.31-2.95,11.78-3.01,502.69-.53,513.29,7.43,1.14,15.38,1.07,21.98,6.63,6.44,5.43,10.66,11.92,12.57,19.86,2.95,12.33-.24,19.86-12.09,24.53-7.32,2.88-9.85,7.42-10.63,14.42-1.58,14.06-3.54,28.09-5.15,42.15-.96,8.42-1.31,9.83-6.06,16.06-5.91-1.65-5.98-6.65-5.67-11.21,.86-12.66,2.21-25.29,3.24-37.94,.41-4.97,.49-9.97,.76-15.69-3.37-.17-5.81-.58-8.2-.37-9.01,.78-10.22,1.81-11.96,10.98-3.13,16.4-6.1,32.84-9.07,49.27-6.58,36.44-13.04,72.9-19.79,109.3-.98,5.27-2.7,10.61-5.17,15.36-3.07,5.88-7.9,6.9-13.85,3.83-9.05-4.67-15.15-11.8-14.71-22.35,.53-12.66,1.45-25.37,3.36-37.89,5.37-35.16,11.35-70.24,17.05-105.35,.33-2.05,.32-4.15,.54-7.3-3.25,.59-5.68,.66-7.83,1.49-5.08,1.95-10.19,3.95-14.99,6.47-11.47,6.03-21.17,2.91-30.21-8.88-8.16-10.65-6.8-24.84,2.44-33.74,8.08-7.78,18.2-11.89,28.75-14.9,20.59-5.87,41.26-11.46,61.89-17.16,1.75-.48,3.47-1.13,5.25-1.42,6.16-1,8.17-4.62,8.1-10.7-.24-19.99-.07-39.98-.06-59.97,0-142.84,0-285.68,0-428.53,0-5.36,0-10.71,0-16.07l-2.28-.3c-.97,3.29-2.24,6.52-2.86,9.88-17.73,96.02-45.37,189.33-78.3,281.07-16.81,46.83-35.53,92.97-53.83,139.25-2.78,7.03-2.96,12.81,.2,19.62,4.58,9.86,8.06,20.22,12.21,30.28,2.34,5.67,.45,9.82-3.89,13.43-14.2,11.82-28.68,7.48-35.08-8.13-2.84-6.92-5.11-14.07-8.11-22.44-17.24,11.32-24.75,30.14-39.27,40.58-1.82,0-2.67,.26-3.23-.04-15.65-8.42-17.69-14.24-8.67-29.38,4.42-7.42,10.46-13.88,15.91-20.66,7.96-9.91,15.89-19.86,24.13-29.54,12.83-15.07,18.74-15.46,34.52-2.89,.84,.67,1.74,1.25,3.19,2.29,5.92-7.2,8.51-15.56,10.72-24.38-8.67-7.5-20.62-9.95-28.26-21.24,4.21-1.05,7.44-1.97,10.73-2.65,8.16-1.71,16.5-2.81,24.44-5.22,3.36-1.02,7.28-4.16,8.57-7.3,6.47-15.79,12.16-31.89,18.06-47.9,.22-.59-.15-1.41-.35-2.84-8.47-6.75-20.58-9.55-28.58-21.11,4.7-1.09,8.3-2,11.94-2.76,7.45-1.54,15.05-2.57,22.33-4.7,3.13-.92,7.1-3.48,8.16-6.25,5.67-14.84,10.55-29.98,15.68-44.95-8.98-7.79-21.28-8.58-28.42-19.69,5.34-1.43,9.69-2.76,14.12-3.76q23.88-5.4,31.07-28.71c3.07-10.05,5.89-20.17,9.15-31.39-5.51-2.79-10.6-5.28-15.6-7.93-5.07-2.69-10.06-5.54-16.21-8.94-2.9,5.21-5.55,9.81-8.05,14.5-52.84,98.82-110.88,194.4-177.66,284.48-17.95,24.21-37.42,47.3-56.18,70.91-2.65,3.33-5.24,6.71-8.75,11.2,6.66,1.25,11.51-.03,15.98-1.61,16.86-5.98,39.09,16.14,33.83,37.98-1.59,6.6-7.16,10.29-13.16,11.98-9.74,2.75-19.74,4.67-29.69,6.58-11.15,2.15-11.17,1.98-13.27,13.55-9.41,51.79-18.79,103.58-28.32,155.35-.91,4.95-2.22,9.99-4.32,14.53-3.59,7.75-8.58,8.98-15.93,4.96-8.68-4.74-14.09-11.88-13.65-21.87,.55-12.66,1.49-25.37,3.4-37.88,5.31-34.81,11.22-69.52,16.84-104.28,.39-2.4,.36-4.87,.6-8.31-3.24,.64-5.68,.77-7.85,1.61-5.08,1.96-10.19,3.95-14.99,6.49-11.52,6.08-21.43,2.5-30.16-9.05-7.88-10.42-6.79-24.14,1.85-32.95,7.88-8.04,18-12.22,28.51-15.3,13.92-4.08,27.97-7.78,42.04-11.32,7.34-1.85,13.16-5.37,17.91-11.41,6.95-8.85,14.54-17.2,21.74-25.86,2.5-3.01,4.65-6.32,6.9-9.41-6.18-9.58-17.33-14.43-20.24-26.46,2.4-.4,4.11-1.01,5.76-.9,4.7,.33,9.42,.72,14.07,1.5,13.61,2.28,24.59-.11,32.52-13.25,6.88-11.39,15.79-21.55,23.89-32.37-7.67-9.3-18.65-14.16-24.2-26.41,5.1,0,8.53,.09,11.95-.02,8.68-.27,17.38-.37,26.03-1.09,2.62-.22,6.07-1.55,7.48-3.54,9.81-13.86,19.19-28.04,28.77-42.21-7.84-9.53-18.72-14.49-24.89-26.46,4.02-.37,6.93-.78,9.85-.89,9.04-.32,18.13-.12,27.12-1.01,3.14-.31,7.14-2.5,8.84-5.08,9.72-14.84,18.87-30.07,28.34-45.37-7.85-9.83-20.24-14.27-25.36-27.11,3.47-.45,6.14-1.03,8.82-1.09,8.35-.18,16.74,.29,25.04-.41,3.65-.31,8.67-1.85,10.39-4.55,8.56-13.41,16.22-27.38,24.23-41.22-8.02-9.12-20.03-12.42-25.77-24.74,4.42-.51,7.8-.94,11.18-1.27,7.58-.75,15.22-1.08,22.71-2.36,3.32-.57,7.77-2.22,9.21-4.78,8.12-14.47,15.48-29.36,22.88-43.7-9.37-7.99-17.6-15-25.77-22.08-.39-.34-.21-1.34-.5-3.63,4.44-.48,8.91-1.08,13.4-1.41,5.07-.37,10.15-.61,15.24-.68,12.2-.16,21.11-10.74,16.67-24.89,9.45-6.25,13.48-13.14,15.73-27.16-7.96-6.63-19.19-9.63-26.07-20.89,5.88-1.06,10.68-2,15.5-2.77,2.15-.34,4.34-.36,6.52-.53,11.91-.93,20.02-5.6,23.27-18.51,4.16-16.52,10.41-32.5,15.17-48.88,1.69-5.82,2.29-12.14,2.31-18.23,.19-44.34,.1-88.69,.11-133.03,0-2.91,.06-5.82,.04-8.72-.05-5.27,2.31-7.9,7.8-8.24,13.12-.82,25.67,.87,35.76,9.91,11.79,10.57,24.37,13.44,39.13,7.08,3.38-1.46,7.48-1.24,11.24-1.79,.28,1.92,.71,3.05,.44,3.25-9.79,7.35-19.08,15.63-29.67,21.57-9.5,5.32-20.36,3.6-30.72,.24-5.79-1.88-11.78-3.43-17.79-4.29-5.13-.74-8.24,2.08-8.3,7.58-.03,2.91-.14,5.81-.15,8.72-.01,22.17,.4,44.35-.13,66.51-.44,18.33,1.55,36.24,6.06,53.95,3.68,14.43,7.55,28.81,10.88,43.31,1.57,6.84,5.39,10.86,11.91,12.65,5.94,1.63,11.9,3.22,17.87,4.75,4.12,1.05,8.27,1.96,13.87,3.28-7.91,11.32-20.19,13.1-30.5,20.15,2.86,8.45,4.83,17.4,8.96,25.19,2.23,4.21,8.16,6.45,12.79,9.85-.13,.48-.08,1.75-.7,2.37-7.46,7.51-7.02,10.84,2.78,13.85,6.54,2.01,13.44,2.87,20.2,4.18,4.53,.87,9.08,1.63,14.96,2.67-6.99,12.35-19.68,14.89-29.29,22.64,1.23,3.77,2.24,7.57,3.68,11.19,4.16,10.46,8.59,20.82,12.7,31.3,1.89,4.81,4.96,7.91,10.06,8.91,6.75,1.32,13.49,2.7,20.25,3.99,4.52,.86,9.06,1.62,15.01,2.68-6.92,11.58-18.55,14.39-27.78,21.49,.74,2.64,1.16,5.45,2.28,7.95,4.74,10.61,10.01,21,14.43,31.74,2.69,6.53,7.05,9.82,13.81,10.47,6.85,.66,13.7,1.34,20.56,1.99,3.81,.36,7.62,.69,12.96,1.18-6.6,12.83-18.73,16.67-27.92,24.87,1.1,2.98,1.94,6.07,3.33,8.9,5.75,11.75,12.04,23.24,17.37,35.17,3.37,7.54,8.63,11.33,16.51,12.1,6.14,.6,12.3,1.1,18.44,1.7,3.54,.35,7.08,.81,11.82,1.36-4.91,12.59-17.73,15.43-25.92,24.77,8.23,14.79,16.3,29.75,24.93,44.38,1.41,2.39,5.11,4.15,8.05,4.75,6.72,1.38,13.63,1.86,20.46,2.72,4.51,.57,9.01,1.16,14.45,1.86-4.89,11.96-16.42,14.71-23.62,22.94,1.43,2.86,2.64,5.83,4.32,8.52,6.92,11.1,14.22,21.97,20.9,33.21,3.78,6.36,8.99,9.15,16.11,9.13,9.37-.02,18.74,0,29.39,0-2.98,12.99-15.08,16.42-21.92,26.14,5.67,7.99,11.35,16.3,17.44,24.28,.98,1.28,3.84,1.64,5.78,1.53,2.09-.12,4.15-1.22,6.16-2.03,20.49-8.27,42.85,7.52,45.33,26.55,1.38,10.58-.52,21.59-1.04,32.4-.07,1.41-.57,2.87-1.16,4.18-2.3,5.07-4.84,9.98-11.42,10.24-5.42,.22-12.38-5.33-14.45-11.42-1.12-3.3-2.16-6.63-3.18-9.75-18.63,2.68-51.77,28.3-62.01,48.03,5.43,.31,10.29,.87,15.14,.83,14.53-.12,29.05-.56,43.58-.7,12.36-.12,22.37,5.69,31.33,13.44,5.12,4.43,7.71,10.42,8.58,17.17,2.52,19.4-2.43,36.9-14.18,52.25-21.42,27.97-49.99,45.16-84.1,52.64-13.66,3-27.22,1.51-39.59-7.1-14.9-10.37-19.41-24.7-18.06-41.67,.57-7.17,4.27-10.73,11.45-10.27,7.53,.49,15.21,1.66,22.39,3.91,28.41,8.9,50.27-2.22,69.61-21.78,.69-.7,.9-1.87,2.05-4.41-7.58-.93-14.52-2.4-21.48-2.49-11.96-.15-24-.11-35.89,1.06-25.78,2.52-42.9-12.96-42.29-38.86,.33-13.95,5.71-26.15,12.73-37.76,14.52-24.02,34.41-43.01,56.68-59.71,3.17-2.38,6.32-4.78,10.46-7.91-1.91-3.33-3.41-6.49-5.39-9.32-79.89-113.91-141.4-237.73-196.53-364.98-1.71-3.94-3.58-7.81-5.85-12.75Zm-116.73-82.47c-3.87,8.17-7.36,15.59-10.9,22.98-3.59,7.5-7.46,14.87-10.79,22.48-3.2,7.31-8.82,13.75-9.25,23.72,6.89-1.32,12.81-2.56,18.77-3.58,11.83-2.02,19.86-7.6,21.32-20.61,.64-5.69,2.82-11.2,4.15-16.83,1.65-6.94,3.15-13.91,4.89-21.64-6.41-2.3-11.7-4.19-18.19-6.52Zm113.12,73c-9.08-23.55-17.43-45.21-26.09-67.69-5.9,1.68-10.52,3-16.29,4.65,3.13,16.67,6,32.23,9.03,47.76,.33,1.68,1.2,3.74,2.5,4.65,8.63,6.04,18.17,9.54,30.85,10.64Zm-104.51-91.82c13-1.05,16.24-3.29,18.21-12.87,2.99-14.57,5.65-29.21,8.37-43.83,.31-1.65,.04-3.4,.04-5.11-.64-.15-1.29-.3-1.93-.45-8.15,20.55-16.29,41.09-24.69,62.26Zm53.75-51.03c-.92,.2-1.84,.41-2.75,.61,1.89,14.16,3.52,28.37,5.79,42.47,1.05,6.52,6.09,8.94,13.95,9.66-5.86-18.44-10.92-35.75-16.99-52.74Z"/><path d="M1164.64,1278.21c-26.05,9.07-44.06,26.79-62.27,47.98,4.72,.81,7.34,1.67,9.94,1.64,12.71-.19,25.42-.69,38.13-.93,12.82-.24,25.05,.93,36.48,8.34,13.78,8.94,17.51,21.53,16.25,36.57-1.69,20.15-10.91,36.87-25.33,50.49-7.31,6.91-11.59,13.94-11.43,24.42,.24,15.95-.87,31.92-1.53,47.88-.19,4.53,.76,9.62-4.64,12.58-5.9-2.07-7.18-6.95-7.11-12.14,.12-8.7,.92-17.39,1.15-26.1,.21-7.91,.04-15.83,.04-24.12-5.84-.71-9.42,2.22-10.92,6.94-1.96,6.15-3.87,12.56-4.17,18.94-.64,13.42-.16,26.89-.26,40.33-.04,5.05,.19,10.33-5.57,13.49-6.16-1.87-6.5-6.83-6.28-12.1,.61-14.14,1.33-28.27,1.75-42.41,.11-3.8-.69-7.62-1.2-12.64-4.78,1.16-8.14,2.23-11.57,2.76-8.91,1.39-17.83,3.36-26.79,3.63-22.46,.68-45.9-18.01-43.28-47.82,.84-9.57,4.16-12.93,14.08-12.2,6.81,.51,13.74,1.74,20.23,3.84,27.99,9.09,49.51-2.16,68.76-21.1,.73-.72,1.07-1.85,1.49-2.83,.11-.26-.14-.69-.43-1.84-16.8-3.04-33.96-4.19-51.28-1.99-10.99,1.39-21.36,1.43-31.26-5.43-12.17-8.44-16.26-19.9-15.71-33.81,.42-10.74,3.75-20.74,8.91-30.04,19.21-34.67,47.29-60.36,81.45-79.77,2.82-1.6,5.99-2.57,9.03-3.77,20.91-8.28,42.09,7.34,45.55,25,2.32,11.83,2.28,23.84-1.18,35.6-.31,1.04-.55,2.12-1,3.1-2.38,5.09-5.19,9.78-11.7,9.94-4.99,.12-12.06-5.25-13.99-10.58-.61-1.69-.66-3.59-1.25-5.29-.58-1.68-1.51-3.23-3.11-6.55Z"/><path d="M974.02,1756.44c5.84-1.99,10.21-3.65,14.69-4.98,19.81-5.89,39.55-12.04,59.5-17.38,11.01-2.94,21.84-1.6,30.22,7.27,3.18,3.36,6.1,7.28,8.03,11.45,4.78,10.34,2.16,21.56-11.77,23.39-35.87,4.72-67.85,20.68-100.27,35.32-3.24,1.46-6.29,3.34-9.23,4.91,2.26,9.75,4.37,12.63,12.74,12.49,10.43-.18,20.93-1.48,31.21-3.32,7.81-1.4,15.31-4.47,22.99-6.66,11.57-3.31,21.79,1.17,27,11.84,3.81,7.8,4.4,16.14,2.91,24.5-1.48,8.31-7.58,11.93-15.36,13.26-15.37,2.63-30.75,5.24-46.13,7.85-4.28,.73-8.57,1.43-13.13,2.2-4.7,16.92,3.24,35.3-5.65,52.24-7.89-3.84-7.13-9.7-6.84-15.47,.51-10.14,1-20.28,1.27-30.42,.11-4.23-1.21-7.63-5.95-9.2-30.65-10.17-40.29-34.28-41.46-63.63-1.17-29.31,4.02-57.91,10.99-86.17,4.95-20.08,10.66-40,16.72-59.77,1.61-5.26,5.35-10.11,8.96-14.44,3.21-3.84,8.45-5.2,12.99-3.12,5.43,2.49,9.76,.49,14.57-1.14,15.11-5.12,30.25-10.16,45.46-14.98,3.77-1.19,7.93-1.12,11.74-2.21,18.34-5.28,38.28,17.87,33.71,39.92-1.14,5.51-5.26,8.44-10.75,9.49-9.98,1.91-20.19,3.07-29.85,6.04-16.95,5.21-33.55,11.59-50.32,17.41-5.63,1.95-8.76,5.61-10.11,11.58-2.73,12.03-6.11,23.92-9.11,35.89-.32,1.28,.08,2.75,.23,5.87Z"/><path d="M1633.65,1755.98c4.43-1.49,8.81-3.11,13.29-4.44,19.8-5.89,39.54-12.03,59.48-17.42,11.48-3.1,22.29-1.18,31.19,7.71,5.07,5.06,8.44,10.93,9.24,18.05,.89,7.82-1.76,13.31-9.31,15.03-8.48,1.93-9.67,7.13-10,14.25-.26,5.73-1.49,11.44-2.63,17.09-.2,.99-2.31,2.5-3.11,2.28-1.45-.41-3.45-1.79-3.68-3.05-.66-3.53-.62-7.21-.7-10.83-.09-4.24-.02-8.49-.02-12.6-15.71-1.31-75.41,21.59-93.59,35.21,2.06,8.92,4.17,11.81,12.54,11.66,10.43-.18,20.92-1.48,31.21-3.32,7.81-1.4,15.31-4.47,22.99-6.66,11.57-3.31,21.78,1.16,27,11.82,3.82,7.8,4.41,16.13,2.92,24.49-1.19,6.62-5.34,11.21-12.17,12.39-20.36,3.52-40.66,7.88-61.18,9.91-23.5,2.33-49.72-14.11-56.11-40.63-4.06-16.85-4.72-33.75-3.17-50.84,2.87-31.59,10.13-62.29,19.06-92.64,2.87-9.75,4.98-19.78,8.64-29.22,1.98-5.11,5.88-9.98,10.1-13.55,2.55-2.16,7.92-3.11,11.07-1.97,5.47,1.99,9.77,.43,14.61-1.19,16.85-5.61,33.52-12.12,50.76-16.16,23.19-5.44,40.67,9.1,40.85,32.15,.09,10.61-2.75,14.47-13.3,16.39-21.45,3.9-42.68,8.4-63.01,16.65-22.63,9.19-22.73,8.96-28.88,32.75-2.15,8.3-4.27,16.61-6.4,24.91,.78,.59,1.56,1.18,2.34,1.78Z"/><path d="M931.69,1346.99c4.7-1.62,9.42-3.15,14.09-4.86,20.45-7.51,41.03-14.47,62.69-17.76,15.38-2.34,30.17,6.13,35.17,20.6,4.24,12.25,.31,20.58-12.33,22.41-36.53,5.3-69.17,21.21-102.19,36.21-2.57,1.17-4.9,2.89-7.51,4.46,.48,7.32,4.24,10.52,10.9,11.53,12.16,1.84,23.85-.48,35.45-3.54,7.01-1.85,13.89-4.19,20.87-6.15,11.82-3.32,23.39,1.53,27.13,13.02,2.39,7.34,2.72,15.64,2.46,23.46-.2,6.16-4.71,11.22-10.87,12.22-21.44,3.49-42.44,9.28-64.4,10.07-24.09,.87-50.05-15.87-55.66-45.5-3.07-16.22-3.21-32.5-1.66-48.81,3.87-40.71,15.92-79.57,27.08-118.64,1.91-6.68,5.53-12.01,11.62-15.02,2.98-1.48,7.53-2.6,10.17-1.35,5.46,2.57,9.71,.62,14.55-.96,17.22-5.62,34.28-11.92,51.83-16.26,22.72-5.62,40.69,10.41,39.89,34.17-.31,9.19-3.48,13.18-12.52,15.03-8.88,1.81-17.87,3.07-26.73,4.96-18.54,3.96-36.13,10.66-53.34,18.53-4.68,2.14-7.39,5.06-8.6,10.23-3.1,13.34-6.75,26.55-10.19,39.81,.7,.71,1.41,1.42,2.11,2.14Z"/><path d="M2019.08,1790.19c-13.33-1.7-25.13-2.66-37-2.48-8.34,.12-16.75,.21-25.01,1.24-21.62,2.7-43.58-17.17-37.8-44.89,2.18-10.46,6.3-21,11.72-30.21,18.06-30.71,43.89-53.84,74.24-72.07,3.4-2.04,7.13-3.62,10.86-5.01,22.04-8.22,41.98,2.66,47.51,25.52,2.83,11.69,1.6,23.05-1.46,34.41-.28,1.05-.68,2.08-1.14,3.06-2.38,5.1-5.4,10.62-11.62,9.79-6.05-.81-11.53-4.24-13.53-11.02-.91-3.09-1.96-6.15-3.34-10.43-3.66,.74-7.33,.76-10.3,2.22-20.22,9.94-36.77,24.39-50.51,42.15-.4,.52-.36,1.38-.75,3.04,2.16,.64,4.37,1.87,6.56,1.84,8.7-.13,17.4-.94,26.09-.96,10.83-.02,22.08-1.31,32.42,1.1,31.06,7.24,36.67,25.77,32.8,49.49-2.34,14.34-9,26.74-18.39,37.72-9.76,11.4-20.83,21.44-34.03,28.56-7.08,3.82-9.73,8.94-9.84,16.53-.19,13.07-.67,26.14-1.29,39.2-.23,4.85,.43,10.39-5.3,13.04-5.45-1.67-5.1-5.93-4.98-9.87,.36-11.25,.92-22.5,1.32-33.75,.14-3.9,.02-7.8,.02-13.21-4.91,1.31-8.27,2.34-11.69,3.1-7.42,1.66-14.81,4.01-22.33,4.61-24.27,1.92-48.87-13-50.12-43.95-.54-13.42,5.82-18.64,19.03-16.03,8.18,1.61,16.35,3.39,24.36,5.66,11.9,3.36,23,1.16,33.83-3.83,11.25-5.18,22.42-14.19,29.68-24.55Z"/><path d="M1502.8,1347.23c5.41-1.9,10.82-3.77,16.22-5.7,20.51-7.34,41.1-14.36,62.85-17.25,15.32-2.04,31.6,9.84,34.06,25.21,1.46,9.12-1.85,14.6-10.85,17.12-5.23,1.47-10.59,2.5-15.95,3.43-33.42,5.78-62.81,22.11-93.27,35.62-1.24,.55-2.15,1.82-3.31,2.85,.65,6.47,4,9.69,10.1,11.17,9.95,2.41,19.58,.37,29.09-1.68,9.55-2.05,18.85-5.29,28.28-7.94,11.7-3.29,23.25,1.65,27.07,13.11,2.33,7,2.77,14.92,2.55,22.38-.2,6.64-4.76,11.87-11.4,13.03-20.69,3.6-41.42,7.23-62.28,9.59-25.87,2.92-52.61-16.16-57.69-47.97-4.03-25.23-2.03-50.18,3.22-74.66,6.46-30.12,15.11-59.77,22.76-89.63,1.83-7.14,5.93-12.56,12.55-15.53,2.71-1.22,6.83-2.03,9.18-.82,5.42,2.77,9.69,.55,14.52-1.01,17.58-5.69,35.2-11.27,52.88-16.64,25.34-7.7,41.45,19.34,38.49,38-1.17,7.38-6.37,10.14-12.81,11.4-8.9,1.73-18.1,2.4-26.7,5.07-17.63,5.48-34.93,12-52.38,18.07-5.27,1.83-8.05,5.43-9.33,10.94-3.09,13.31-6.66,26.52-10.04,39.77,.73,.7,1.46,1.4,2.19,2.09Z"/><path d="M1796.19,1756.65c6.06-2,10.33-3.52,14.68-4.82,19.79-5.93,39.51-12.1,59.44-17.56,11.38-3.11,22.32-1.77,31.4,7,5.74,5.54,9.37,11.95,9.45,20.1,.07,8.38-2.43,11.85-10.54,14.14-3.49,.98-7.06,1.71-10.63,2.33-20.14,3.49-39.44,9.63-58,18.18-12.53,5.77-25.18,11.28-37.72,17.03-2.84,1.3-7.13,2.48-5.67,6.61,1.08,3.06,3.78,6,6.52,7.86,2.19,1.48,5.6,1.89,8.37,1.64,9.71-.89,19.47-1.78,29.02-3.64,7.8-1.51,15.5-3.97,22.94-6.81,8.28-3.16,14.82-.62,21.03,4.58,8.94,7.49,12.89,27.8,6.32,37.14-2.44,3.47-7.15,6.56-11.32,7.39-18.84,3.77-37.74,7.76-56.83,9.64-28.94,2.85-59.02-15.24-62.04-56.93-2.25-31.17,2.05-61.64,9.47-91.72,5.21-21.14,11.4-42.03,17.19-63.02,1.69-6.12,4.49-11.82,10.21-14.87,3.3-1.76,8.09-3.52,11.14-2.38,6.24,2.32,11.15,.29,16.66-1.57,16.15-5.44,32.22-11.26,48.68-15.61,27.59-7.3,38.63,11.94,41.69,29.24,1.96,11.04-2.31,17.39-13.59,19.31-25.87,4.41-51.03,10.92-75.1,21.67-7.59,3.39-12.4,7.67-13.86,16.28-1.51,8.91-4.51,17.56-6.7,26.37-.84,3.39-1.24,6.89-2.21,12.43Z"/><path d="M1351.02,1703.58c-2.47,1.11-4.22,1.57-5.58,2.55-32.82,23.92-55.61,54.94-65.92,94.49-1.43,5.48-1.33,11.6-.74,17.3,1,9.6,5.15,13.86,14.83,13.91,7.45,.04,15.55-.7,22.22-3.67,12.2-5.44,23.83-12.33,35.17-19.47,12.28-7.74,23.76-16.74,35.94-24.65,13.31-8.64,23.76-2.49,24.8,13.51,1.21,18.39-4.86,33.39-18.59,45.59-21.96,19.52-47.82,29.78-76.78,32.79-4.28,.45-8.59,.62-13.79,.99-.87,5.06-2.12,9.58-2.34,14.15-1.05,21.77-1.77,43.55-2.74,65.32-.18,3.96-.56,8-1.59,11.81-.44,1.64-2.74,3.76-4.29,3.83-1.63,.08-4.54-1.78-4.83-3.22-1.15-5.62-2.09-11.42-2.02-17.14,.26-22.87,1.12-45.74,1.35-68.62,.09-8.48-.74-8.81-11.31-10.44-.26,3.93-.55,7.76-.76,11.6-.8,14.5-1.35,29.01-2.47,43.49-.34,4.39-2.23,8.66-3.37,12.85-6.75-.98-6.12-5.15-6.17-8.59-.11-9.08,.06-18.17,.09-27.25,.03-8.36-.27-16.73,.09-25.07,.43-10.17-1.94-18.48-9.15-26.63-11.18-12.63-12.41-29.08-11.82-45.29,.94-25.58,8.84-49.27,21.52-71.28,22.96-39.85,52.5-73.96,89.96-100.93,4.12-2.97,8.4-5.74,12.79-8.32,10.17-5.97,19.4-2.53,22.75,8.97,1.81,6.22,2.97,12.82,3.14,19.28,.5,18.16,.31,36.33,.44,54.5,.06,8.02-2.97,14.89-7.85,21-4.01,5.02-8.98,9.44-15.78,7.34-7.07-2.19-13.15-6.43-14.45-14.7-.99-6.33-1.76-12.69-2.75-19.99Z"/><path d="M1139.16,1752.86c-2.25,10.88-4.57,21.74-6.73,32.64-4.44,22.43-8.68,44.91-13.29,67.31-.93,4.55-2.53,9.17-4.84,13.18-3.18,5.53-7.22,6.15-12.92,3.15-10.25-5.39-16.16-13.88-15.56-25.45,.58-11.19,2.23-22.36,4.07-33.43,6.4-38.68,12.97-77.33,19.74-115.94,1.94-11.07,4.77-21.99,7.2-32.98,2.13-9.66,7.67-17.12,15.1-23.35,9.48-7.95,19.6-5.2,23.79,6.63,1.21,3.41,1.83,7.02,2.66,10.56,7.27,31.11,14.31,62.27,21.89,93.31,2.55,10.42,6.45,20.52,9.99,31.56,5.14-2.84,3.98-6.45,4.09-9.28,1.18-31.65,5.19-62.95,11.26-94,1.25-6.4,2.94-12.74,4.81-18.99,2.47-8.27,7.67-14.8,14.33-20.12,4.63-3.69,9.42-6.92,15.81-3.34,7.4,4.14,10.08,8.51,8.85,16.89-2.12,14.36-4.63,28.67-6.86,43.02-5.35,34.43-11.17,68.79-15.7,103.33-2.21,16.87-1.76,34.08-2.92,51.11-.37,5.36-1.49,10.85-3.33,15.89-2.97,8.13-7.62,9.77-15.36,5.83-14.6-7.42-26.48-17.72-33.89-32.72-10.82-21.92-18.48-44.97-24.92-68.48-1.5-5.49-3.25-10.91-4.88-16.36-.79,.01-1.59,.02-2.38,.03Z"/><path d="M1479.37,1746.7c10.13-1.07,19.75-2.12,29.37-3.1,6.13-.62,12.27-1.26,18.42-1.7,9.59-.7,10.35-1.33,11.71-10.7,2.24-15.44,4.37-30.91,6.78-46.32,1.12-7.16,2.56-14.3,4.27-21.34,2.18-8.99,6.36-17.02,13.18-23.42,3.98-3.74,8.23-7.98,14.31-5.22,6.14,2.78,11.19,6.81,10.8,14.73-.48,9.79,.08,19.7-1.25,29.35-3.03,21.93-6.68,43.78-10.64,65.56-1.16,6.35-1.02,12.07,1.28,18.05,2.69,7.01,1.82,13.09-4.23,18.72-2.79,2.6-4.09,7.49-4.77,11.56-3.22,19.33-5.81,38.77-9.05,58.09-.89,5.28-2.62,10.63-5.08,15.38-3.12,6.01-7.66,6.76-13.74,3.51-9.86-5.27-15.39-13.49-14.87-24.67,.69-14.84,2.21-29.65,3.41-44.47,.35-4.27,.81-8.53,1.31-13.74-3.68,0-6.57-.55-9.17,.09-14.79,3.67-29.48,7.74-44.26,11.43-6.11,1.52-8.71,4.71-9.45,11.27-1.7,15.13-4.46,30.13-6.92,45.17-.41,2.49-1.34,4.9-2.19,7.3-5.28,14.94-12.4,16.64-23.68,5.36-6.93-6.93-8.6-15.89-7.91-25.21,.91-12.3,2.09-24.6,3.72-36.83,.66-4.95,.16-9.03-2.25-13.49-2.36-4.37-3.94-9.38-4.82-14.29-1.39-7.75,.69-14.65,8.27-18.44,5.45-2.73,6.11-7.38,6.86-12.6,3.5-24.43,7.07-48.84,11.04-73.2,1.45-8.92,3.18-18.01,9.43-25.2,2.37-2.73,4.84-5.52,7.76-7.58,9.34-6.59,21.82-1.33,22.8,10.11,.7,8.24,.11,16.73-1.02,24.95-2.79,20.13-6.29,40.15-9.34,60.25-.47,3.1-.07,6.33-.07,10.63Z"/><path d="M876.18,1632.88c14.18-.24,27.24,3.29,39.1,11.27,16.91,11.38,22.28,25.1,17.42,45.06-3.35,13.73-10.13,25.74-19.47,36.08-9.48,10.5-19.67,20.36-29.71,30.34-10.3,10.24-20.79,20.3-31.22,30.42-12.07,11.72-25.25,21.94-40.85,28.53-5.36,2.26-7.75,5.68-8.37,11.4-1.17,10.82-2.58,21.64-4.64,32.31-1.22,6.33-3.22,12.71-6.04,18.49-3.14,6.45-7.28,7.17-13.48,3.87-11-5.85-16.89-16.49-15.34-28.85,5.91-47.16,12.07-94.29,17.85-141.47,.44-3.62-.5-7.97-2.25-11.19-4.33-7.93-6.23-16.16-5.79-25.1,.36-7.17,3.69-12.28,9.89-15.81,19.58-11.17,71.52-25.4,92.9-25.37Zm-61.45,120.71c3.42-1.28,5.69-1.52,7.13-2.75,21.25-18.15,42.46-36.35,63.48-54.76,2.63-2.31,4.62-5.66,6.1-8.9,2.46-5.39,.4-8.54-5.35-8.79-2.14-.09-4.42,.15-6.45,.81-13.78,4.43-27.42,9.31-41.28,13.45-12.36,3.69-19.07,11.02-18.29,24.35,.08,1.4-.64,2.83-.84,4.26-1.45,10.31-2.87,20.63-4.49,32.33Z"/><path d="M776.84,1410.5c13.23-.52,23.81-4.34,34.32-8.07,8.53-3.03,16.96-6.48,25.14-10.34,7.09-3.35,12.9-2.3,19.2,2.14,7.62,5.37,12.12,12.26,13.76,21.27,2.05,11.21-1.41,20.17-12.07,23.77-11.98,4.04-15,11.85-14.83,23.05,.24,15.24-.04,30.49-.2,45.73-.05,4.62,.8,10.01-5.12,11.85-3.8,1.18-9.4-4.36-10.05-10.99-.7-7.15-.3-14.47,.24-21.68,.82-11.15,1.53-22.24,.23-34.77-5.22,1.37-9.32,2.43-13.4,3.53-11.9,3.19-23.65,7.18-35.72,9.44-24.18,4.53-41.89-10.91-41.46-35.68,.14-7.94,1.33-15.89,2.38-23.79,4.91-36.64,9.68-73.31,15.05-109.89,2.26-15.4,5.64-30.65,8.96-45.86,1.99-9.13,6.95-16.71,14.52-22.38,10.41-7.78,22.51-2.72,23.51,10.43,.63,8.24,.14,16.75-1.16,24.93-7.16,45.11-14.74,90.15-22.13,135.23-.57,3.47-.7,7-1.19,12.08Z"/><path d="M429.92,490.04c-3.78,2.14-6.66,3.47-9.22,5.25-19.37,13.48-38.56,27.22-58.08,40.48-5.7,3.88-8.2,8.3-8.16,15.26,.23,41.04,.11,82.08,.14,123.12,0,2.17-.07,4.42,.42,6.51,2.96,12.79-3.19,21.03-13.62,26.78-10.56,5.82-21.79,8.03-33.57,3.98-15.19-5.23-17.87-18.38-5.98-29.36,7.51-6.93,16.68-10.05,26.74-10.78,3.22-.23,6.46-.31,10.9-.52,.5-4.7,1.39-9.22,1.38-13.73-.06-46.48-.11-92.96-.6-139.44-.07-6.74,3.55-9.8,8.08-12.96,21.71-15.2,43.42-30.4,65.13-45.6,5.95-4.16,11.75-8.56,17.88-12.43,8.57-5.42,13.93-2.63,14.04,7.64,.26,26.15,.08,52.3,.13,78.45,.04,24.33-.02,48.67,.33,72.99,.12,8.39-2.77,14.92-9.4,19.71-11.51,8.32-24.19,11.57-38.06,7.27-15.06-4.67-18.03-18.59-6.37-29.41,7.2-6.68,15.97-9.91,25.67-10.55,3.91-.26,7.85-.04,11.38-.04,2.86-9.13,3.5-87.98,.84-102.6Zm-74.68,32.05l2.17,1.37c3.26-2.03,6.61-3.92,9.76-6.11,15.77-10.97,31.49-22.02,47.22-33.06,4.45-3.12,8.92-6.23,13.28-9.47,3.62-2.69,4.62-5.92,1.64-10.51-2.98,1.71-5.56,2.93-7.88,4.54-19.64,13.67-39.23,27.4-58.82,41.14-2.07,1.45-4.52,2.81-5.77,4.84-1.22,2-1.13,4.8-1.61,7.25Z"/><path d="M2848.56,1978.49c.1,20.24,3.65,39.38-1.04,58.38-3.38,13.7-10.4,24.8-22.66,31.98-7.17,4.2-14.62,8.13-22.36,11.07-7.34,2.79-11.43,.73-13.27-6.69-5.74-23.2-5.87-45.32,13.03-63.79,13.39-13.08,30.83-19.75,46.31-30.95Z"/><path d="M1778.1,2895.26c8.01-17.2,14.64-34.89,24.09-50.91,13.35-22.62,36.21-25.94,60.04-24.5,6.74,.41,9.11,4.38,8.76,11.37-1.33,26.9-17.86,48.94-43.83,56.35-14.6,4.17-29.76,6.37-44.69,9.34-.85,.17-1.9-.68-4.38-1.66Z"/><path d="M2269.71,2335c.64,.3,1.66,.44,1.86,.92,5.9,14.02,12.59,27.8,17.37,42.2,8.65,26.03,.19,51.29-21.44,68.01-6.72,5.19-10.32,4.89-15.86-1.34-18.55-20.89-21.98-47.44-8.23-71.71,7.31-12.9,16.13-24.96,24.33-37.35,.31-.47,1.3-.49,1.97-.72Z"/><path d="M2335.7,2555.28c-1.4,1.37-1.9,2.3-2.42,2.31-18.04,.2-35.89,4.22-54.12,1.51-26.2-3.88-38.84-21.97-47.9-43.98-2.65-6.43-.48-9.61,6.42-12.61,22.29-9.69,49.54-5.24,66.61,12,7.6,7.67,13.59,16.94,20.21,25.56,3.87,5.04,7.54,10.23,11.2,15.2Z"/><path d="M476.43,285.13c.25-5.05,.68-9.67,.68-14.28,.05-40.63,.02-81.26,.05-121.89,0-3.26-.64-6.89,.57-9.67,1.1-2.53,4.08-5.17,6.69-5.77,1.5-.35,4.65,2.91,5.71,5.17,1.16,2.46,1,5.65,1,8.52,.09,50.79,.12,101.57,.16,152.36,0,1.45,.13,2.95-.17,4.34-2.85,13.11-12.59,19.11-24.3,22.11-11.9,3.05-23.96,3.61-33.43-6.4-5.05-5.33-4.78-12.07,.24-18.91,5.4-7.35,13-11.61,21.78-13.3,6.33-1.22,12.86-1.44,21.03-2.28Z"/><path d="M2287.11,2899.84c-2.06-.34-2.61-.27-2.74-.47-10.48-16.34-22.87-31.55-29.11-50.37-4.19-12.64-4-25.05,2.1-36.89,3.95-7.68,8.28-15.31,13.49-22.16,5.22-6.86,9.41-7.14,15.43-1.05,23.22,23.51,28.84,40.47,19.99,67.26-4.95,14.98-12.63,29.05-19.15,43.69Z"/><path d="M2400.58,2792.92c-20.23,4.69-38.76,15.38-60.46,15.03-11.37-.18-21.66-2.89-30.19-10.31-6.8-5.91-13.42-12.23-19.08-19.21-5.41-6.67-4.24-10.38,2.61-15.42,22.89-16.81,49.69-17.34,73.03-.92,7.69,5.41,14.64,11.86,21.95,17.81,4.13,3.37,8.31,6.68,12.47,10.02-.11,1-.23,2-.34,3Z"/><path d="M634.45,420.25c.46-6.05,1.16-11.01,1.17-15.97,.09-39.98,.04-79.96,.08-119.94,0-3.62,.08-7.28,.57-10.86,.51-3.72,3.21-6.31,6.75-5.47,2.2,.52,4.86,3.31,5.44,5.57,1.06,4.14,.96,8.63,.96,12.98,.06,41.07,.01,82.14,.05,123.21,0,7.27,.42,14.53,.32,21.8-.05,3.57-.17,7.38-1.39,10.66-6.74,18.17-39.58,26.43-54.36,13.86-6.99-5.95-7.59-14.48-1.1-22.23,7.43-8.87,17.4-12.82,28.73-13.55,3.91-.25,7.86-.04,12.76-.04Z"/><path d="M1751.64,1575.44c-.14,5.86-4.43,13.56-14.81,18.15-9.57,4.24-18.52,9.85-27.81,14.75-6.08,3.21-12.07,6.75-18.46,9.22-9.06,3.51-17.59,1.11-22.68-5.42-4.26-5.47-3.65-14.78,1.81-22.27,2.34-3.2,4.86-6.51,7.99-8.85,16.08-11.99,33.43-21.79,52.91-26.99,13.21-3.53,21.25,3.18,21.03,21.41Z"/><path d="M2193.57,925.66c-1.7,2.46-3.03,6.16-5.64,7.72-3.71,2.22-6.88-.73-9-3.88-1.81-2.69-3.23-5.65-4.72-8.54-13.13-25.4-26.26-50.79-39.34-76.22-1.65-3.21-3.22-6.5-4.37-9.91-1.11-3.28-1.01-7.23,2.75-8.24,2.6-.7,6.37,.25,8.66,1.84,2.86,1.99,4.96,5.24,7.02,8.2,16.21,23.27,29.55,48.12,40.22,74.39,1.76,4.32,2.73,8.96,4.42,14.63Z"/><path d="M2496.11,2204.99c-26.32,13.06-40.45,33.39-53.61,55.08,10.56-32.96,2.89-66.96,7.27-100.54,11.78,17.81,24.36,34.4,46.33,45.47Z"/><path d="M1133.37,262.28c2.6,2.08,6.12,3.64,7.51,6.31,1.87,3.59-.43,6.97-3.88,8.99-1.85,1.08-3.85,2.04-5.9,2.62-14.56,4.14-29.11,8.32-43.75,12.15-5.78,1.51-9.16-.3-10.37-4.85-1.23-4.59-.76-9.32,4.33-10.82,16.92-4.99,33.99-9.45,52.07-14.41Z"/><path d="M714.2,1407.29c2.08-14.32,3.96-28.67,6.35-42.94,.7-4.2,2.56-8.29,4.38-12.2,1.58-3.38,4.2-6.43,8.48-5.09,4.48,1.4,4.18,5.5,3.63,9.12-1.58,10.37-3.32,20.73-5.09,31.07-1.1,6.42-2.3,12.83-3.62,19.21-.43,2.11-1.06,4.29-2.11,6.15-1.84,3.25-2.61,8.46-7.99,7.2-4.93-1.15-3.02-5.83-3.46-9.18-.14-1.07-.02-2.17-.02-3.26-.18-.03-.36-.05-.55-.08Z"/><path d="M746.3,1880.65c-.88-3-2.79-6.27-2.61-9.41,1.04-18.05,2.54-36.06,4.01-54.08,.14-1.74,.86-3.54,1.72-5.09,1.94-3.51,5.67-3.79,7.59-.34,1.35,2.44,2.56,5.51,2.35,8.18-1.36,17.3-2.91,34.6-4.94,51.84-.41,3.5-1.29,8.19-8.12,8.92Z"/><path d="M467.07,2390.36c-.93,6.3-3.26,12.68-8.73,17.39-5.1,4.39-9.96,3.59-13.65-1.9-2-2.98-3.88-6.03-5.89-8.99-4.53-6.69-5.04-14.31-1.21-19.17,3.62-4.59,10.74-5.93,17.92-3.36,7.06,2.52,11.65,8.62,11.56,16.04Z"/><path d="M1534.36,419.29c-3.13-.87-9.57-2.12-15.54-4.55-2.51-1.02-5.7-4.61-5.57-6.86,.17-3,2.6-7.25,5.23-8.49,8.96-4.23,18.4-3.74,27.26,.76,4.67,2.37,6.44,7.43,5.11,12.04-1.42,4.91-5.81,7.3-16.49,7.1Z"/><path d="M2058.96,1460.85c1.46-2.81,1.86-4.76,3.06-5.73,11.4-9.15,21.14-19.84,30.14-31.31,2.5-3.19,5.6-7.02,12.05-3.48-5.5,14.47-16.73,24.2-27.14,34.36-4.25,4.14-9.37,8.04-18.11,6.15Z"/><path d="M1302.25,1256.39c0,5.36-.1,8.38,.02,11.39,.31,7.83,.74,15.65,1.05,23.47,.11,2.79,.69,5.81-.12,8.34-1.26,3.94-5.86,4.48-8.64,1.47-7.48-8.08-8.03-30.43-.73-38.66,1.71-1.93,4.26-3.1,8.42-6.03Z"/><path d="M1978.68,506.78c8.66,2.41,14.75,6.21,17.77,13.28,.89,2.09,.26,6.09-1.27,7.63-1.59,1.61-5.91,2.64-7.64,1.6-5.17-3.11-10.01-7.01-14.21-11.35-1.47-1.52-1.75-5.75-.69-7.74,1.05-1.95,4.48-2.63,6.02-3.42Z"/><path d="M2122.96,799.3c-1.73,2.81-2.55,5.71-4.37,6.62-1.77,.89-5.54,.64-6.73-.66-3.54-3.91-7.1-8.26-8.92-13.09-.86-2.29,1.46-7.03,3.76-8.82,1.47-1.14,6.69,.17,8.24,2.03,3.32,4,5.35,9.07,8.02,13.91Z"/><path d="M1631.14,1165.11c-10.89-4.73-14.44-13.63-16.28-23.38-.91-4.81,2.38-7.12,6.42-5.25,7.93,3.66,13.72,19.17,9.86,28.63Z"/><path d="M942.43,1228.58c2.07-2.56,3.36-4.99,5.36-6.45,6.28-4.59,23.67-9.46,30.2-8.83,1.96,3.56-.66,5.28-2.98,6.93-7.3,5.2-24.76,10.04-32.58,8.35Z"/><path d="M1416.72,1639.66c-.67,3.87-.67,5.74-1.33,7.35-1.56,3.81-6.76,4.77-8.39,1.19-2.6-5.73-4.17-11.98-5.55-18.15-.32-1.45,1.65-4.67,2.99-4.93,2.01-.4,5.51,.41,6.42,1.9,2.69,4.42,4.43,9.42,5.85,12.65Z"/><path d="M694.11,415.48c-5.31,0-8.08-2.62-8.19-7.74-.12-5.5,5.54-11.14,11-10.96,4.62,.15,8.33,4.45,8.21,9.51-.14,5.55-4.5,9.2-11.01,9.2Z"/><path d="M2057.82,1615.88c5.97,.31,11.95,6.6,11.82,12.19-.11,4.67-3.07,6.08-7.14,5.97-6.64-.19-11.58-5.46-11.26-11.71,.23-4.46,2.7-6.31,6.58-6.45Z"/><path d="M1962.23,1480.66c-1.15,2.05-2.59,4.64-4.04,7.22-2.63-1.54-5.8-2.59-7.75-4.75-2.1-2.32-3.2-5.61-4.47-8.59-1.71-4-.38-7.38,3.43-9,4.09-1.75,8.19-.78,10.1,3.54,1.42,3.21,1.69,6.94,2.72,11.59Z"/><path d="M907.02,1868.85c.23-3.39-1.78-9.3,5.86-9.02,4.48,.16,8.35,5.83,8.12,11.07-.23,5.13-4.19,9.31-8.64,9.14-4.49-.17-6.05-3.12-5.33-11.19Z"/><path d="M1408.18,677.38c4.58-.23,10.56,4.43,11.04,8.62,.49,4.24-3.11,7.92-8.03,8.22-5.75,.35-9.85-3.3-9.91-8.83-.05-4.61,2.7-7.8,6.9-8.01Z"/><path d="M1151.04,239.19c.19,5.96-6.47,11.8-11.36,11.79-3.93-.01-5.91-2.3-6.29-6.05-.56-5.57,4.21-10.66,10.21-9.87,2.93,.39,5.56,3.03,7.44,4.13Z"/><path d="M1061.21,1271.67c-3.93,.05-8.26-4.45-8.11-8.42,.16-3.98,4.29-8.52,8.09-8.87,4.26-.39,7.77,3.48,7.6,8.4-.16,4.75-3.65,8.84-7.58,8.89Z"/><path d="M1586.93,1886.87c.16-5.56,3.24-9.26,7.48-9.41,4.06-.14,6.88,3.4,6.51,8.16-.39,5-4.67,10.24-8.41,9.8-5.37-.63-5.29-5.01-5.57-8.55Z"/><path d="M1768.82,1553.02c-6.03-.25-11.66-5.99-11.69-10.11-.03-3.99,2.75-6.31,7.2-5.99,5.42,.39,10.11,5.18,8.89,10.02-.65,2.57-3.3,4.64-4.4,6.09Z"/><path d="M1929.2,1205.52c4.48,3.51,8.57,5.72,11.22,9.08,2.54,3.22,.26,7.38-3.55,8.24-4.71,1.06-14.33-6.32-13.56-10.99,.33-1.99,3.2-3.56,5.9-6.32Z"/><path d="M1391.39,301.92c-4.73-.09-8.27-3.07-8.23-6.94,.04-3.97,5.43-8,10.36-7.61,4.25,.34,6.67,2.75,6.8,7.02,.13,4.34-3.92,7.62-8.92,7.53Z"/><path d="M1075.95,1696.03c-4.53,7.16-13.85,9.35-23.77,5.58,4.78-7.21,14.07-9.39,23.77-5.58Z"/><path d="M902.94,1620.98c-9.07,3.08-16.2,2.13-22.85-3.14,5.43-7.16,16.48-5.9,22.85,3.14Z"/><path d="M1402.47,1602.16c-.14,5.47-5.05,9.9-8.94,9.63-3.83-.27-5.75-2.68-5.8-6.39-.06-4.55,3.99-8.36,8.5-7.3,2.58,.61,4.73,3.03,6.24,4.07Z"/><path d="M1383.99,1482.66c.19-6.08,1.12-9.43,6.07-9.03,3.69,.3,5.9,2.37,5.93,6.23,.02,3.73-4.18,8.45-7.42,7.45-2.25-.69-3.77-3.78-4.57-4.65Z"/><path d="M726.75,1440.36c-3.09,2.66-5.25,6.02-7.21,5.91-4.46-.26-4.76-4.52-4.64-8.18,.12-3.35,1.07-7.4,5.09-6.21,2.47,.73,3.97,4.78,6.75,8.48Z"/><path d="M460.45,2332.44c2.95,3.73,6.36,6.21,6.05,8.1-.37,2.35-3.51,5.33-6,6-3.51,.95-6.64-1.85-6.07-5.53,.39-2.53,3.16-4.69,6.02-8.58Z"/><path d="M1525.19,1310.38c2.16,6.81,3.02,13.32-4.69,18.53-2.36-7.87-.82-13.67,4.69-18.53Z"/><path d="M1103.24,1487.7c7.15-.8,11.37,1.43,10.92,5.59-.21,2-2.32,4.16-4.14,5.41-.58,.4-3.59-1.58-4.46-3.07-1.2-2.04-1.43-4.66-2.32-7.93Z"/><path d="M1829.27,1711.72c.67,.7,2.42,1.7,2.74,3.03,.93,3.82-4.39,9.78-8.4,9.18-1.55-.23-3.68-2.37-3.97-3.94-.57-3.05,5.04-7.93,9.63-8.27Z"/><path d="M931.12,1629.05c-4.22,1.96-6.78,4.13-8.09,3.54-2.6-1.16-4.52-3.86-6.72-5.92,1.66-1.49,3.85-4.54,4.86-4.18,2.95,1.02,5.42,3.41,9.95,6.57Z"/><path d="M767.83,1887.56c-3.34,1.99-5.24,4.04-7.19,4.09-3.75,.1-4.77-3.14-3.71-6.03,.67-1.85,3.76-4.62,4.58-4.26,2.14,.93,3.62,3.36,6.32,6.2Z"/><path d="M2039.53,1616.86c-3.49,1.83-5.61,3.89-7.3,3.57-1.76-.33-3.09-2.94-4.62-4.56,1.76-1.4,3.49-3.86,5.27-3.9,1.71-.04,3.49,2.42,6.64,4.89Z"/><path d="M1314.37,1316.41c-2.97,1.53-5.04,3.49-6.38,3.08-1.97-.61-3.43-2.91-5.1-4.49,1.82-1.35,3.72-3.87,5.42-3.74,1.82,.14,3.44,2.78,6.06,5.15Z"/><path d="M1091.16,1698.6c-1.69-1.98-3.67-3.37-3.47-4.28,.28-1.26,2.07-2.61,3.48-3.01,.75-.21,2.98,1.63,2.89,2.31-.2,1.44-1.49,2.72-2.9,4.98Z"/><path d="M2504.39,2228.08c-6.09-3.4-12.69-3.63-19.41-3.12,7.16-3.25,13.8-3.25,19.41,3.12Z"/><path d="M2493.28,2149.28c10.98-6.22,22.18-3.32,28.68,7.43,6.27,10.38,3.29,23.18-6.87,29.52-9.61,5.99-22.32,2.28-28.91-8.44-6.45-10.5-3.54-21.88,7.34-28.69-1.01,1.03-2.07,2.02-3.03,3.1-11.03,12.39-6.17,28.47,9.84,32.62,12.78,3.32,22.43-5.57,20.17-18.59-2.43-13.99-9.98-18.7-27.22-16.95Z"/><path d="M2503.11,2180.57c-7.64-.04-13.62-6.02-13.66-13.67-.04-7.78,5-12.88,12.75-12.9,6.2-.02,13.27,7.64,13.39,14.5,.12,6.78-5.38,12.1-12.48,12.06Zm-9.69-9.48c1.66,1.24,3.32,2.48,4.98,3.72,4.41,2.89,8.67,3.78,12.03-1.43,2.28-3.53,1.3-10.01-1.69-13.04-3.06-3.1-8.58-3.6-12.95-.88-4.76,2.96-6.1,6.83-2.36,11.62Z"/><path d="M2493.81,2168.46c.23-1.42,.05-3.32,.76-4.18,1.77-2.13,4.17-5.5,5.92-5.2,2.05,.36,4.62,3.76,5.26,6.41,.92,3.81-2.08,5.54-4.95,6.39-.88,.26-1.83,.21-2.76,.3-1.42-1.25-2.83-2.49-4.24-3.73Zm10.29-2.01c-1.67-2.12-2.62-3.92-3.99-4.74-.48-.29-3,2.11-2.86,2.79,.36,1.73,1.47,3.57,2.74,4.54,.53,.4,2.22-1.34,4.11-2.58Z"/></svg>